<?xml version="1.0" encoding="UTF-8" standalone="no"?>
<svg
   viewBox="0 0 115.52 196.3"
   version="1.1"
   id="svg418"
   sodipodi:docname="lung_model.svg"
   inkscape:version="1.1.1 (3bf5ae0d25, 2021-09-20)"
   xmlns:inkscape="http://www.inkscape.org/namespaces/inkscape"
   xmlns:sodipodi="http://sodipodi.sourceforge.net/DTD/sodipodi-0.dtd"
   xmlns="http://www.w3.org/2000/svg"
   xmlns:svg="http://www.w3.org/2000/svg">
  <sodipodi:namedview
     id="namedview420"
     pagecolor="#ffffff"
     bordercolor="#666666"
     borderopacity="1.0"
     inkscape:pageshadow="2"
     inkscape:pageopacity="0.0"
     inkscape:pagecheckerboard="0"
     showgrid="false"
     inkscape:zoom="2.2236373"
     inkscape:cx="92.416153"
     inkscape:cy="53.74078"
     inkscape:window-width="1864"
     inkscape:window-height="1311"
     inkscape:window-x="1532"
     inkscape:window-y="16"
     inkscape:window-maximized="0"
     inkscape:current-layer="svg418" />
  <defs
     id="defs4">
    <marker
       style="overflow:visible"
       id="DiamondL"
       refX="0.0"
       refY="0.0"
       orient="auto"
       inkscape:stockid="DiamondL"
       inkscape:isstock="true">
      <path
         transform="scale(0.8)"
         style="fill-rule:evenodd;fill:context-stroke;stroke:context-stroke;stroke-width:1.0pt"
         d="M 0,-7.0710768 L -7.0710894,0 L 0,7.0710589 L 7.0710462,0 L 0,-7.0710768 z "
         id="path15435" />
    </marker>
    <marker
       style="overflow:visible"
       id="marker15788"
       refX="0.0"
       refY="0.0"
       orient="auto"
       inkscape:stockid="Tail"
       inkscape:isstock="true">
      <g
         transform="scale(-1.2)"
         id="g15786">
        <path
           style="fill:none;fill-rule:evenodd;stroke:context-stroke;stroke-width:0.8;stroke-linecap:round"
           d="M -3.8048674,-3.9585227 L 0.54352094,0"
           id="path15774" />
        <path
           style="fill:none;fill-rule:evenodd;stroke:context-stroke;stroke-width:0.8;stroke-linecap:round"
           d="M -1.2866832,-3.9585227 L 3.0617053,0"
           id="path15776" />
        <path
           style="fill:none;fill-rule:evenodd;stroke:context-stroke;stroke-width:0.8;stroke-linecap:round"
           d="M 1.3053582,-3.9585227 L 5.6537466,0"
           id="path15778" />
        <path
           style="fill:none;fill-rule:evenodd;stroke:context-stroke;stroke-width:0.8;stroke-linecap:round"
           d="M -3.8048674,4.1775838 L 0.54352094,0.21974226"
           id="path15780" />
        <path
           style="fill:none;fill-rule:evenodd;stroke:context-stroke;stroke-width:0.8;stroke-linecap:round"
           d="M -1.2866832,4.1775838 L 3.0617053,0.21974226"
           id="path15782" />
        <path
           style="fill:none;fill-rule:evenodd;stroke:context-stroke;stroke-width:0.8;stroke-linecap:round"
           d="M 1.3053582,4.1775838 L 5.6537466,0.21974226"
           id="path15784" />
      </g>
    </marker>
    <marker
       style="overflow:visible;"
       id="Arrow2Send"
       refX="0.0"
       refY="0.0"
       orient="auto"
       inkscape:stockid="Arrow2Send"
       inkscape:isstock="true">
      <path
         transform="scale(0.3) rotate(180) translate(-2.3,0)"
         d="M 8.7185878,4.0337352 L -2.2072895,0.016013256 L 8.7185884,-4.0017078 C 6.9730900,-1.6296469 6.9831476,1.6157441 8.7185878,4.0337352 z "
         style="stroke:context-stroke;fill-rule:evenodd;fill:context-stroke;stroke-width:0.62500000;stroke-linejoin:round;"
         id="path15389" />
    </marker>
    <marker
       style="overflow:visible;"
       id="Arrow2Mend"
       refX="0.0"
       refY="0.0"
       orient="auto"
       inkscape:stockid="Arrow2Mend"
       inkscape:isstock="true">
      <path
         transform="scale(0.6) rotate(180) translate(0,0)"
         d="M 8.7185878,4.0337352 L -2.2072895,0.016013256 L 8.7185884,-4.0017078 C 6.9730900,-1.6296469 6.9831476,1.6157441 8.7185878,4.0337352 z "
         style="stroke:context-stroke;fill-rule:evenodd;fill:context-stroke;stroke-width:0.62500000;stroke-linejoin:round;"
         id="path15383" />
    </marker>
    <marker
       style="overflow:visible;"
       id="marker15750"
       refX="0.0"
       refY="0.0"
       orient="auto"
       inkscape:stockid="Arrow2Lend"
       inkscape:isstock="true">
      <path
         transform="scale(1.1) rotate(180) translate(1,0)"
         d="M 8.7185878,4.0337352 L -2.2072895,0.016013256 L 8.7185884,-4.0017078 C 6.9730900,-1.6296469 6.9831476,1.6157441 8.7185878,4.0337352 z "
         style="stroke:context-stroke;fill-rule:evenodd;fill:context-stroke;stroke-width:0.62500000;stroke-linejoin:round;"
         id="path15748" />
    </marker>
    <marker
       style="overflow:visible"
       orient="auto"
       refY="0"
       refX="0"
       id="RazorWire"
       inkscape:stockid="RazorWire"
       inkscape:isstock="true">
      <path
         d="M 0.022727273,-0.74009011 L 0.022727273,0.69740989 L -7.7585227,3.0099099 L 10.678977,3.0099099 L 3.4914773,0.69740989 L 3.4914773,-0.74009011 L 10.741477,-2.8963401 L -7.7272727,-2.8963401 L 0.022727273,-0.74009011 z "
         style="fill:#808080;fill-opacity:1;fill-rule:evenodd;stroke:context-stroke;stroke-width:0.1pt"
         transform="scale(0.8,0.8)"
         id="path15588" />
    </marker>
    <marker
       style="overflow:visible"
       id="Torso"
       refX="0.0"
       refY="0.0"
       orient="auto"
       inkscape:stockid="Torso"
       inkscape:isstock="true">
      <g
         transform="scale(0.7)"
         id="g15582">
        <path
           style="fill:none;fill-opacity:0.75000000;fill-rule:evenodd;stroke:context-stroke;stroke-width:1.2500000"
           d="M -4.7792281,-3.2395420 C -2.4288541,-2.8736027 0.52103922,-1.3019943 0.25792722,0.38794346 C -0.0051877922,2.0778819 -2.2126741,2.6176539 -4.5630471,2.2517169 C -6.9134221,1.8857769 -8.5210350,0.75201414 -8.2579220,-0.93792336 C -7.9948090,-2.6278615 -7.1296041,-3.6054813 -4.7792281,-3.2395420 z "
           id="path15568" />
        <path
           style="fill:none;fill-opacity:0.75000000;fill-rule:evenodd;stroke:context-stroke;stroke-width:1.0000000pt"
           d="M 4.4598789,0.088665736 C -2.5564571,-4.3783320 5.2248769,-3.9061806 -0.84829578,-8.7197331"
           id="path15570" />
        <path
           style="fill:none;fill-opacity:0.75000000;fill-rule:evenodd;stroke:context-stroke;stroke-width:1.0000000pt"
           d="M 4.9298719,0.057520736 C -1.3872731,1.7494689 1.8027579,5.4782079 -4.9448731,7.5462725"
           id="path15572" />
        <rect
           style="fill-rule:evenodd;fill:context-stroke;stroke-width:1.0000000pt"
           width="2.6366582"
           height="2.7608147"
           x="-10.391706"
           y="-1.7408575"
           transform="matrix(0.527536,-0.849533,0.887668,0.460484,0,0)"
           id="rect15574" />
        <rect
           style="fill-rule:evenodd;fill:context-stroke;stroke-width:1.0000000pt"
           width="2.7327356"
           height="2.8614161"
           x="4.9587269"
           y="-7.9629307"
           transform="matrix(0.671205,-0.741272,0.790802,0.612072,0,0)"
           id="rect15576" />
        <path
           style="fill:#ff0000;fill-opacity:0.75000000;fill-rule:evenodd;stroke:context-stroke;stroke-width:1.0000000pt"
           d="M 16.779951 -28.685045 A 0.60731727 0.60731727 0 1 0 15.565317,-28.685045 A 0.60731727 0.60731727 0 1 0 16.779951 -28.685045 z"
           transform="matrix(0,-1.109517,1.109517,0,25.96648,19.71619)"
           id="path15578" />
        <path
           style="fill:#ff0000;fill-opacity:0.75000000;fill-rule:evenodd;stroke:context-stroke;stroke-width:1.0000000pt"
           d="M 16.779951 -28.685045 A 0.60731727 0.60731727 0 1 0 15.565317,-28.685045 A 0.60731727 0.60731727 0 1 0 16.779951 -28.685045 z"
           transform="matrix(0,-1.109517,1.109517,0,26.82450,16.99126)"
           id="path15580" />
      </g>
    </marker>
    <marker
       style="overflow:visible"
       id="Scissors"
       refX="0.0"
       refY="0.0"
       orient="auto"
       inkscape:stockid="Scissors"
       inkscape:isstock="true">
      <path
         style="fill:context-stroke;"
         d="M 9.0898857,-3.6061018 C 8.1198849,-4.7769976 6.3697607,-4.7358294 5.0623558,-4.2327734 L -3.1500488,-1.1548705 C -5.5383421,-2.4615840 -7.8983361,-2.0874077 -7.8983361,-2.7236578 C -7.8983361,-3.2209742 -7.4416699,-3.1119800 -7.5100293,-4.4068519 C -7.5756648,-5.6501286 -8.8736064,-6.5699315 -10.100428,-6.4884954 C -11.327699,-6.4958500 -12.599867,-5.5553341 -12.610769,-4.2584343 C -12.702194,-2.9520479 -11.603560,-1.7387447 -10.304005,-1.6532027 C -8.7816644,-1.4265411 -6.0857470,-2.3487593 -4.8210600,-0.082342643 C -5.7633447,1.6559151 -7.4350844,1.6607341 -8.9465707,1.5737277 C -10.201445,1.5014928 -11.708664,1.8611256 -12.307219,3.0945882 C -12.885586,4.2766744 -12.318421,5.9591904 -10.990470,6.3210002 C -9.6502788,6.8128279 -7.8098011,6.1912892 -7.4910978,4.6502760 C -7.2454393,3.4624530 -8.0864637,2.9043186 -7.7636052,2.4731223 C -7.5199917,2.1477623 -5.9728246,2.3362771 -3.2164999,1.0982979 L 5.6763468,4.2330688 C 6.8000164,4.5467672 8.1730685,4.5362646 9.1684433,3.4313614 L -0.051640930,-0.053722219 L 9.0898857,-3.6061018 z M -9.2179159,-5.5066058 C -7.9233569,-4.7838060 -8.0290767,-2.8230356 -9.3743431,-2.4433169 C -10.590861,-2.0196559 -12.145370,-3.2022863 -11.757521,-4.5207817 C -11.530373,-5.6026336 -10.104134,-6.0014137 -9.2179159,-5.5066058 z M -9.1616516,2.5107591 C -7.8108215,3.0096239 -8.0402087,5.2951947 -9.4138723,5.6023681 C -10.324932,5.9187072 -11.627422,5.4635705 -11.719569,4.3902287 C -11.897178,3.0851737 -10.363484,1.9060805 -9.1616516,2.5107591 z "
         id="schere" />
    </marker>
    <marker
       style="overflow:visible"
       id="Tail"
       refX="0.0"
       refY="0.0"
       orient="auto"
       inkscape:stockid="Tail"
       inkscape:isstock="true">
      <g
         transform="scale(-1.2)"
         id="g15404">
        <path
           style="fill:none;fill-rule:evenodd;stroke:context-stroke;stroke-width:0.8;stroke-linecap:round"
           d="M -3.8048674,-3.9585227 L 0.54352094,0"
           id="path15392" />
        <path
           style="fill:none;fill-rule:evenodd;stroke:context-stroke;stroke-width:0.8;stroke-linecap:round"
           d="M -1.2866832,-3.9585227 L 3.0617053,0"
           id="path15394" />
        <path
           style="fill:none;fill-rule:evenodd;stroke:context-stroke;stroke-width:0.8;stroke-linecap:round"
           d="M 1.3053582,-3.9585227 L 5.6537466,0"
           id="path15396" />
        <path
           style="fill:none;fill-rule:evenodd;stroke:context-stroke;stroke-width:0.8;stroke-linecap:round"
           d="M -3.8048674,4.1775838 L 0.54352094,0.21974226"
           id="path15398" />
        <path
           style="fill:none;fill-rule:evenodd;stroke:context-stroke;stroke-width:0.8;stroke-linecap:round"
           d="M -1.2866832,4.1775838 L 3.0617053,0.21974226"
           id="path15400" />
        <path
           style="fill:none;fill-rule:evenodd;stroke:context-stroke;stroke-width:0.8;stroke-linecap:round"
           d="M 1.3053582,4.1775838 L 5.6537466,0.21974226"
           id="path15402" />
      </g>
    </marker>
    <marker
       inkscape:stockid="DistanceEnd"
       orient="auto"
       refY="0.0"
       refX="0.0"
       id="DistanceEnd"
       style="overflow:visible"
       inkscape:isstock="true">
      <g
         id="g2301">
        <path
           id="path2316"
           d="M 0,0 L -2,0"
           style="fill:none;stroke:context-fill;stroke-width:1.15;stroke-linecap:square" />
        <path
           id="path2312"
           d="M 0,0 L -13,4 L -9,0 -13,-4 L 0,0 z "
           style="fill:context-stroke;fill-rule:evenodd;stroke:none" />
        <path
           id="path2314"
           d="M 0,-4 L 0,40"
           style="fill:none;stroke:context-stroke;stroke-width:1;stroke-linecap:square" />
      </g>
    </marker>
    <marker
       inkscape:stockid="DistanceStart"
       orient="auto"
       refY="0.0"
       refX="0.0"
       id="DistanceStart"
       style="overflow:visible"
       inkscape:isstock="true">
      <g
         id="g2300">
        <path
           id="path2306"
           d="M 0,0 L 2,0"
           style="fill:none;stroke:context-fill;stroke-width:1.15;stroke-linecap:square" />
        <path
           id="path2302"
           d="M 0,0 L 13,4 L 9,0 13,-4 L 0,0 z "
           style="fill:context-stroke;fill-rule:evenodd;stroke:none" />
        <path
           id="path2304"
           d="M 0,-4 L 0,40"
           style="fill:none;stroke:context-stroke;stroke-width:1;stroke-linecap:square" />
      </g>
    </marker>
    <marker
       style="overflow:visible;"
       id="Arrow2Lend"
       refX="0.0"
       refY="0.0"
       orient="auto"
       inkscape:stockid="Arrow2Lend"
       inkscape:isstock="true">
      <path
         transform="scale(1.1) rotate(180) translate(1,0)"
         d="M 8.7185878,4.0337352 L -2.2072895,0.016013256 L 8.7185884,-4.0017078 C 6.9730900,-1.6296469 6.9831476,1.6157441 8.7185878,4.0337352 z "
         style="stroke:context-stroke;fill-rule:evenodd;fill:context-stroke;stroke-width:0.62500000;stroke-linejoin:round;"
         id="path15377" />
    </marker>
    <inkscape:path-effect
       effect="spiro"
       id="path-effect14813"
       is_visible="true"
       lpeversion="1" />
    <style
       id="style2">.cls-1{fill:#f9bfa2;}.cls-2{opacity:0;}.cls-10,.cls-11,.cls-12,.cls-13,.cls-14,.cls-15,.cls-3,.cls-4,.cls-5,.cls-6,.cls-7,.cls-8,.cls-9{fill:none;}.cls-10,.cls-101,.cls-11,.cls-12,.cls-13,.cls-14,.cls-15,.cls-3,.cls-4,.cls-5,.cls-6,.cls-7,.cls-8,.cls-9{stroke:#000;stroke-linecap:square;}.cls-4{stroke-dasharray:2.3 2.3;}.cls-5{stroke-dasharray:2.01 2.01;}.cls-6{stroke-dasharray:0.88;}.cls-7{stroke-dasharray:0.26;}.cls-8{stroke-dasharray:1.7 1.7;}.cls-9{stroke-dasharray:1.88 1.88;}.cls-10{stroke-dasharray:2.21 2.21;}.cls-11{stroke-dasharray:1.8 1.8;}.cls-12{stroke-dasharray:0.53;}.cls-13{stroke-width:0.5px;}.cls-14{stroke-dasharray:2.12 2.12;}.cls-15{stroke-dasharray:2.07 2.07;}.cls-16{fill:#e7bcba;}.cls-17{fill:#d38c8d;}.cls-18{fill:#afa6ce;}.cls-19{fill:#e77878;}.cls-20{fill:#f0dcdc;}.cls-21{fill:#b07b7a;}.cls-22{fill:#b17c7b;}.cls-23{fill:#d08c8c;}.cls-24{fill:#d38e8d;}.cls-25{fill:#bb9bb7;}.cls-26{fill:#d97172;}.cls-27{fill:#b4807f;}.cls-28{fill:#b17b7a;}.cls-29{fill:#b07a79;}.cls-30{fill:#ba8d9f;}.cls-31{fill:#f2cfcf;}.cls-32{fill:#d9d4e0;}.cls-33{fill:#ec9999;}.cls-34{fill:#ae7a78;}.cls-35{fill:#a46e70;}.cls-36{fill:#a7797d;}.cls-37{fill:#ad7574;}.cls-38{fill:#a57c83;}.cls-39{fill:#aa8185;}.cls-40{fill:#d38d8c;}.cls-41{fill:#f0dbdb;}.cls-42{fill:#e5b9ba;}.cls-43{fill:#e5b7b8;}.cls-44{fill:#e1b4b8;}.cls-45{fill:#e7bbba;}.cls-46{fill:#dfb4b9;}.cls-47{fill:#e7bdbb;}.cls-48{fill:#e6baba;}.cls-49{fill:#e8bebd;}.cls-50{fill:#e7bdbc;}.cls-51{fill:#e6b8b8;}.cls-52{fill:#e8bcbb;}.cls-53{fill:#e7bab9;}.cls-54{fill:#e6b8b7;}.cls-55{fill:#e6b6b5;}.cls-56{fill:#e5b5b4;}.cls-57{fill:#e6b7b6;}.cls-58{fill:#e9bcbc;}.cls-59{fill:#e5b6b5;}.cls-60{fill:#e6b5b4;}.cls-61{fill:#a66d6c;}.cls-62{fill:#e7b7b7;}.cls-63{fill:#fff;}.cls-64{fill:#fdfdfd;}.cls-65{fill:#fefdfd;}.cls-66{fill:#fffefe;}.cls-67{fill:#fbf7f6;}.cls-68{fill:#fcf9f9;}.cls-69{fill:#fbf7f7;}.cls-70{fill:#fbf4f3;}.cls-71{fill:#e7bcbb;}.cls-72{fill:#e9d5d5;}.cls-73{fill:#d28d8c;}.cls-74{fill:#e6bbb9;}.cls-75{fill:#e6bbba;}.cls-76{fill:#e6b9b8;}.cls-77{fill:#e5b8b6;}.cls-78{fill:#d28d8d;}.cls-79{fill:#d28e8e;}.cls-80{fill:#d28f90;}.cls-81{fill:#d28e8f;}.cls-82{fill:#e4b7b6;}.cls-83{fill:#ae7271;}.cls-84{fill:#ac706f;}.cls-85{fill:#b17473;}.cls-86{fill:#b27574;}.cls-87{fill:#b27776;}.cls-88{fill:#b87e7e;}.cls-89{fill:#b87d7e;}.cls-90{fill:#965f5e;}.cls-91{fill:#98605f;}.cls-92{fill:#97605f;}.cls-93{fill:#975f5f;}.cls-94{fill:#e5b8b7;}.cls-95{fill:#ad7170;}.cls-96{fill:#975f5e;}.cls-97{fill:#7d4342;}.cls-98{fill:#965e5e;}.cls-99{fill:#965e5d;}.cls-100{fill:#804746;}.cls-101{fill-opacity:0;}</style>
  </defs>
  <g
     id="Livello_2"
     data-name="Livello 2">
    <g
       id="Livello_1-2"
       data-name="Livello 1">
      <rect
         class="cls-1"
         x="2.66"
         y="189.8"
         width="77.14"
         height="6"
         id="rect6" />
      <g
         class="cls-2"
         id="g10">
        <path
           d="M95.88,117.2h13.5v24.12"
           id="path8" />
      </g>
      <line
         class="cls-3"
         x1="95.88"
         y1="117.2"
         x2="96.88"
         y2="117.2"
         id="line12" />
      <line
         class="cls-4"
         x1="99.18"
         y1="117.2"
         x2="107.23"
         y2="117.2"
         id="line14" />
      <polyline
         class="cls-3"
         points="108.38 117.2 109.38 117.2 109.38 118.2"
         id="polyline16" />
      <line
         class="cls-5"
         x1="109.38"
         y1="120.21"
         x2="109.38"
         y2="139.32"
         id="line18" />
      <line
         class="cls-3"
         x1="109.38"
         y1="140.32"
         x2="109.38"
         y2="141.32"
         id="line20" />
      <g
         class="cls-2"
         id="g24">
        <path
           d="M95.88,132.65v.88m0-1.14v.26M82,117.2H95.88v15.19m0,35.53V189.8H77.72m18.16-22.42v.54"
           id="path22" />
      </g>
      <line
         class="cls-6"
         x1="95.88"
         y1="132.65"
         x2="95.88"
         y2="133.53"
         id="line26" />
      <line
         class="cls-7"
         x1="95.88"
         y1="132.39"
         x2="95.88"
         y2="132.65"
         id="line28" />
      <line
         class="cls-3"
         x1="81.97"
         y1="117.2"
         x2="82.97"
         y2="117.2"
         id="line30" />
      <line
         class="cls-8"
         x1="84.67"
         y1="117.2"
         x2="94.03"
         y2="117.2"
         id="line32" />
      <polyline
         class="cls-3"
         points="94.88 117.2 95.88 117.2 95.88 118.2"
         id="polyline34" />
      <line
         class="cls-9"
         x1="95.88"
         y1="120.08"
         x2="95.88"
         y2="130.45"
         id="line36" />
      <line
         class="cls-3"
         x1="95.88"
         y1="131.39"
         x2="95.88"
         y2="132.39"
         id="line38" />
      <line
         class="cls-3"
         x1="95.88"
         y1="167.92"
         x2="95.88"
         y2="168.92"
         id="line40" />
      <line
         class="cls-10"
         x1="95.88"
         y1="171.12"
         x2="95.88"
         y2="187.69"
         id="line42" />
      <polyline
         class="cls-3"
         points="95.88 188.8 95.88 189.8 94.88 189.8"
         id="polyline44" />
      <line
         class="cls-11"
         x1="93.09"
         y1="189.8"
         x2="79.62"
         y2="189.8"
         id="line46" />
      <line
         class="cls-3"
         x1="78.72"
         y1="189.8"
         x2="77.72"
         y2="189.8"
         id="line48" />
      <line
         class="cls-12"
         x1="95.88"
         y1="167.38"
         x2="95.88"
         y2="167.92"
         id="line50" />
      <polyline
         class="cls-3"
         points="6.63 0.5 52.53 0.5 52.53 117.2"
         id="polyline52" />
      <polyline
         class="cls-3"
         points="30.07 117.2 30.07 19.44 6.63 19.44"
         id="polyline54" />
      <polyline
         class="cls-13"
         points="10.31 6.32 13.29 4.46 15.32 6.32 18.35 4.46 20.83 6.32 23.07 4.46"
         id="polyline56" />
      <polyline
         class="cls-13"
         points="10.31 10.26 13.29 8.4 15.32 10.26 18.35 8.4 20.83 10.26 23.07 8.4"
         id="polyline58" />
      <polyline
         class="cls-13"
         points="10.31 14.19 13.29 12.33 15.32 14.19 18.35 12.33 20.83 14.19 23.07 12.33"
         id="polyline60" />
      <polyline
         class="cls-13"
         points="44.24 36.06 46.1 39.03 44.24 41.07 46.1 44.1 44.24 46.58 46.1 48.81"
         id="polyline62" />
      <polyline
         class="cls-13"
         points="40.3 36.06 42.16 39.03 40.3 41.07 42.16 44.1 40.3 46.58 42.16 48.81"
         id="polyline64" />
      <polyline
         class="cls-13"
         points="36.37 36.06 38.23 39.03 36.37 41.07 38.23 44.1 36.37 46.58 38.23 48.81"
         id="polyline66" />
      <polyline
         class="cls-13"
         points="44.24 70.84 46.1 73.82 44.24 75.86 46.1 78.89 44.24 81.37 46.1 83.6"
         id="polyline68" />
      <polyline
         class="cls-13"
         points="40.3 70.84 42.16 73.82 40.3 75.86 42.16 78.89 40.3 81.37 42.16 83.6"
         id="polyline70" />
      <polyline
         class="cls-13"
         points="36.37 70.84 38.23 73.82 36.37 75.86 38.23 78.89 36.37 81.37 38.23 83.6"
         id="polyline72" />
      <line
         class="cls-3"
         x1="79.8"
         y1="195.8"
         x2="80.8"
         y2="195.8"
         id="line74" />
      <line
         class="cls-14"
         x1="82.93"
         y1="195.8"
         x2="107.32"
         y2="195.8"
         id="line76" />
      <polyline
         class="cls-3"
         points="108.38 195.8 109.38 195.8 109.38 194.8"
         id="polyline78" />
      <line
         class="cls-15"
         x1="109.38"
         y1="192.73"
         x2="109.38"
         y2="177.21"
         id="line80" />
      <line
         class="cls-3"
         x1="109.38"
         y1="176.17"
         x2="109.38"
         y2="175.17"
         id="line82" />
      <polyline
         class="cls-3"
         points="0.5 183.25 0.5 117.2 30.07 117.2"
         id="polyline84" />
      <polyline
         class="cls-3"
         points="52.53 117.2 81.97 117.2 81.97 183.25"
         id="polyline86" />
      <polyline
         class="cls-3"
         points="79.81 143.12 79.81 195.8 2.66 195.8 2.66 143.12"
         id="polyline88" />
      <polyline
         class="cls-3"
         points="77.72 143.12 77.72 189.8 4.75 189.8 4.75 143.12"
         id="polyline90" />
      <path
         class="cls-16"
         d="M43.16,136.31l.15.86c-.7.76-.45,1.69-.42,2.57,0,.47.1.93.07,1.4a18.1,18.1,0,0,0,.35,4.34,4.53,4.53,0,0,0,1.91,2.71c.65.53,1.35,1,2,1.52.51.46.61,1.15,1,1.68a7.47,7.47,0,0,1-.07,2.54c-.48,0-.73-.42-1-.7a11.09,11.09,0,0,1-2.17-3,1.81,1.81,0,0,0-.63-.79,2.23,2.23,0,0,1-.41-.27c-.43-.32-.67-.24-.76.31a5,5,0,0,0,.18,2.29,12.46,12.46,0,0,1,.56,2.34,8.39,8.39,0,0,1-.56,3.26,1.38,1.38,0,0,1-.23.36.64.64,0,0,1-.66.27.63.63,0,0,1-.44-.5c0-.11,0-.21,0-.32-.06-.65.28-1.3,0-2h0c-.41-1-.77-2-1.11-3a11,11,0,0,1-.34-1.57,7,7,0,0,0-.48-1.53c-.34-.54-.66-.59-1.1-.14a2.92,2.92,0,0,0-.64,1C38,151,37.63,152,37.15,153A4.24,4.24,0,0,1,35.57,155a6.57,6.57,0,0,0-1.77,1.55,7.1,7.1,0,0,1-2.19,1.81,1.69,1.69,0,0,1-1,.24c-.34,0-.63-.17-.58-.61A5.4,5.4,0,0,0,32.24,156a31.74,31.74,0,0,1,2.66-3,5.55,5.55,0,0,0,1.28-2.15l.42-1.28a4.86,4.86,0,0,1,1.23-2.11,3.41,3.41,0,0,0,.84-2.17,10.63,10.63,0,0,1,.49-2.15,2.8,2.8,0,0,0,.07-1.49c-.08-.46-.22-.91-.33-1.36a3.36,3.36,0,0,0-.76-1.2l-.31-.69c.3-.3.56-.14.72.13a.59.59,0,0,0,.72.28c.53-.1.68,0,.82.51a12,12,0,0,1,.18,5,2.38,2.38,0,0,1-.35.84,1.19,1.19,0,0,0-.23.79.12.12,0,0,0,.13,0c.17-.15.15-.54.43-.48s.24.41.26.65a9.93,9.93,0,0,0,.6,2.4,12.23,12.23,0,0,1,.6,2.51,5.89,5.89,0,0,0,.88,2.41,3.82,3.82,0,0,1,.4.92.3.3,0,0,0,.11-.33,2.65,2.65,0,0,0-.35-1.07,4.4,4.4,0,0,1-.66-1.92,14.91,14.91,0,0,0-.76-3.08,11.12,11.12,0,0,1-.55-4.25,27.1,27.1,0,0,0-.26-4.68.86.86,0,0,1,.53-1,3.29,3.29,0,0,1,.55-.21c.47-.15.83-.36.85-1C42.47,136.51,42.68,136.18,43.16,136.31Z"
         id="path92" />
      <path
         class="cls-17"
         d="M58.66,167l-.65-.38a2.06,2.06,0,0,0-.56-.46,1,1,0,0,1-.47-1.19,1.31,1.31,0,0,1,.79.1c.91.4,1.42-.28,2.06-.66a4.08,4.08,0,0,1-1.51-.4c0,.3.42.41.26.61s-.42,0-.62-.12c-.51-.2-.52-.27-.13-.63l.63-.59c.3-.27.23-.44-.13-.56a1.4,1.4,0,0,0-.57-.1,1.79,1.79,0,0,1-1.34-.77c-.14-.2-.4-.4-.22-.65s.42-.1.65-.07c.45.08.89.22,1.34.32a2.7,2.7,0,0,0,2.66-.93,4.69,4.69,0,0,1,.52-.47.56.56,0,0,0,.25-.61A.59.59,0,0,0,61,159a4,4,0,0,0-1.59.42c-.3.13-.52.48-.92.33,0-.3.22-.4.4-.51a6.88,6.88,0,0,1,1.22-.58,4,4,0,0,1-1.58-.46,1.34,1.34,0,0,1-.48-.3.15.15,0,0,1,0-.16.51.51,0,0,1,.65-.05,1.3,1.3,0,0,0,1,.41,6.13,6.13,0,0,1,1.79.51,1.51,1.51,0,0,0-1.78-.87c-.24,0-.48.16-.73,0-.1-.28.15-.32.3-.38a2.42,2.42,0,0,1,.84-.13,1.39,1.39,0,0,0-1.72-.21,3,3,0,0,0-1.19,1c-.28.18-.62.27-.75.63,0,.14-.13.34-.32.33s-.28-.2-.38-.35a.47.47,0,0,1,0-.46,3,3,0,0,1,.54-.58c.55-.5,1.29-.75,1.75-1.36a.15.15,0,0,1,.23,0s0,.16.06.08a3.33,3.33,0,0,1,.43-.67c.11-.14.25-.3.43-.08a1.34,1.34,0,0,0,.46.74,3.6,3.6,0,0,0,1.6.93,2.09,2.09,0,0,1,.62.6c.18.58.43,1.14.58,1.74.09.35.55.75.86.69s.51-.36.62-.75c.27-1-.29-1.53-.92-2.06-.17-.14-.38-.3-.42-.48-.14-.7-.69-.64-1.18-.71a3.25,3.25,0,0,0-.54,0c-.14,0-.3,0-.28-.22.28-.36.67-.22,1.06-.23-.34-.44-.89-.45-1.29-.71-.06-.08-.08-.15,0-.22a3.76,3.76,0,0,1,1.49.15.27.27,0,0,1,.07.14c0,.48.44.66.78.87.14.09.27,0,.34-.14s0-.32.19-.43a.59.59,0,0,1,.53.71c-.2.5.2.6.39.84a1,1,0,0,1,.17.33c0,.77.49,1.45.49,2.34a2.82,2.82,0,0,0,.67-.81c.22-.49.08-.79-.45-.92-.28-.07-.23-.22-.14-.4a.39.39,0,0,1,.31-.09,1.66,1.66,0,0,1,.64.24c.16.14.41.18.47.43-.27.24-.2.64-.39.92,0,.06.14.05.22.09a.27.27,0,0,1,.1.19c-.13.29-.41.33-.65.43-.56.23-.84.57-.74.91.18.57.65.38,1,.38s.55-.16.84-.1a.36.36,0,0,1,.2.22c-.08.39-.48.53-.74.9a2.19,2.19,0,0,0,.88-.78c.12-.16.19-.39.46-.37a1.22,1.22,0,0,1-.19,1.19c-.1.17-.26.3-.22.52a2.39,2.39,0,0,1-.86,1.26l-.12.1a.72.72,0,0,0-.2.78c.06.14.14.27.31.25a.74.74,0,0,0,.63-.45,8.39,8.39,0,0,1,.91-1.63.33.33,0,0,1,.13-.07c.21,0,.28.22.39.35a.17.17,0,0,1,0,.14.93.93,0,0,0,.13,1c.08.23,0,.34-.26.35-.54-.09-1,0-1.27.57.54.24.83-.22,1.22-.37a.72.72,0,0,1,.79.41c.13.28-.14.49-.28.7-.26.39-.71.47-1.06.69a1.74,1.74,0,0,0-1.35,1.3c.16.46.2.48.58.3-.13-.22-.47,0-.58-.29.06-.31.33-.25.54-.3s.62-.14.57-.59c0-.24.14-.3.35-.25s.13.27.14.43c0,.36-.31.58-.49.91.89-.65.93-.77.57-1.47.14-.25.35-.47.64-.35s.37.49.35.82A2.62,2.62,0,0,1,68,169a2.38,2.38,0,0,1-3.14.6,3.94,3.94,0,0,1-.72-.34,1.35,1.35,0,0,0-1-.19,5.37,5.37,0,0,1-1.44-.09,1.1,1.1,0,0,1-.88-.62c-.06-.11-.12-.25,0-.35s.26-.07.39,0a2.4,2.4,0,0,0,2.21,0,2.88,2.88,0,0,0,.54-.42c.45-.23.92-.43,1.1-1-.27,0-.63.25-.77-.11s.26-.23.39-.37a3.36,3.36,0,0,0-.65-.28c-.15-.06-.37-.11-.39-.26-.06-.49-.43-.43-.75-.47a6.47,6.47,0,0,1-1.38-.26.24.24,0,0,1,0-.4,1.79,1.79,0,0,0-1.1,2.34,7,7,0,0,0,.3,1.41c.13.25-.14.23-.29.2a1.72,1.72,0,0,1-1-.62A2.39,2.39,0,0,1,59,167C58.87,166.78,58.75,167,58.66,167Z"
         id="path94" />
      <path
         class="cls-18"
         d="M48.12,153.93c0-.84.09-1.68,0-2.52-.07-.23-.23-.44-.09-.7s.11-.65.09-1a5.05,5.05,0,0,0-.43-1.87,30.19,30.19,0,0,1-1.67-4.7,72.24,72.24,0,0,1-1.93-7.1.59.59,0,0,1,0-.37.7.7,0,0,1,1.08-.17c.34,1.49.63,3,1,4.46a51.63,51.63,0,0,0,2.22,7.46,8.41,8.41,0,0,0,5.43,5.22c.48.14,1-.07,1.43,0,0,.18-.19.08-.2.25a17.18,17.18,0,0,0,2,0,7.75,7.75,0,0,1-7.26-2.18,5.88,5.88,0,0,0,.62,1.29c.42.71.87,1.39,1.36,2.06a1.67,1.67,0,0,0,2.48.67c.06.22-.39.19-.22.45-.06.19-.23.13-.36.16s-.33,0-.36.15.16.22.27.31c.28.26.69.36.92.7-.2.19-.39.08-.57,0a3.26,3.26,0,0,1-1.22-.74,20.64,20.64,0,0,1-1.57-1.53,28.2,28.2,0,0,1-1.83-2.64c-.19-.34-.36-.69-.55-1.08,0,.48,0,.92,0,1.36a1.87,1.87,0,0,0,0,.58c0,.42-.07.83-.07,1.26a.89.89,0,0,0,.17.59,4.57,4.57,0,0,0,1.19,1c.11.06.27.11.22.3s0,.25.1.33a13,13,0,0,1,1.32,1.64c.32.49.83.39,1.34.47l-.18.1c-.21.14-.56-.23-.68.14s.5,1,.77,1.08.3.06.46.09c-.62.44-.86.09-1.11-.44a6.54,6.54,0,0,0-1.35-1.93,9.32,9.32,0,0,1,0,2.53c-.09,1,.7,1.44,1.3,2a5.19,5.19,0,0,0,1.65,1.06,5.38,5.38,0,0,1-2-1,4.11,4.11,0,0,0,2,3,3,3,0,0,1-2-2.2,4.32,4.32,0,0,0-1.22-2,7.63,7.63,0,0,1-2.53-6,2.66,2.66,0,0,0-.07-.37A.15.15,0,0,1,48.12,153.93Z"
         id="path96" />
      <path
         class="cls-19"
         d="M61.77,155.23l0-.11a1,1,0,0,1,.67-.12c.19,0,.26-.08.24-.26.19-.29.47.15.66-.09a1.18,1.18,0,0,0-.22-2c-.79-.59-1.62-1.13-2.44-1.67a.65.65,0,0,0-.87,0,2.81,2.81,0,0,1-.57.3c-.43.24-.45.37-.12.72.16.17.36.31.39.56s-.13.15-.24.14-.24-.18-.36-.26a.46.46,0,0,1,.14.55.13.13,0,0,1-.2,0,5.91,5.91,0,0,0-1.29-2,4.11,4.11,0,0,1-1-2.1.71.71,0,0,0-.3-.53,19,19,0,0,1-6.08-6.7,31,31,0,0,1-1.78-3.37c.15-.34.37-.43.89-.34.66,1.2,1.21,2.45,1.91,3.61a17.89,17.89,0,0,0,7.05,7.12,29.52,29.52,0,0,1,9,6.91,10.77,10.77,0,0,1,2.85,5.86,11.34,11.34,0,0,1-.38,3.93,10.67,10.67,0,0,1-.69,2.09c-.22-.18-.09-.4-.09-.61.26-.72.42-1.47.65-2.22,0,.08-.09.17-.19.14a.33.33,0,0,1-.13-.28,2.68,2.68,0,0,1,.17-1,.61.61,0,0,0,0-.6,3.17,3.17,0,0,0,.14-2.08,4.8,4.8,0,0,0-.79-2c-.08.62-.29,1.23-.4,1.85-.05.26-.15.44-.45.43-.29-.24,0-.52-.06-.78a.22.22,0,0,1,0-.14,2.67,2.67,0,0,0,.22-.36c.18-.5.08-.66-.44-.73a.69.69,0,0,1-.35-.11c-.11-.11-.27-.18-.21-.38s.24,0,.36,0c.65,0,.85-.23.64-.85a2.38,2.38,0,0,0-.41-.75,23.83,23.83,0,0,0-2.81-3c-.11-.1-.23-.27-.41-.19s-.17.27-.19.42a1,1,0,0,0,.18.77,3.3,3.3,0,0,1,.55,1.82c-.07.21.14.43,0,.65l-.24,0,0-.05a5.08,5.08,0,0,1-.28-.86c-.15.2-.07.46-.22.65l-.06,0a2.79,2.79,0,0,1-.49-.54c-.07-.1-.54-.1-.12-.45.16-.14-.13-.65-.43-.88C62.69,155.5,62.17,155.68,61.77,155.23Z"
         id="path98" />
      <path
         class="cls-20"
         d="M43.16,136.31c-.39.08-.65.29-.6.74a.66.66,0,0,1-.49.73c-.31.13-.64.23-1,.37a.7.7,0,0,0-.47.88,17.33,17.33,0,0,1,.27,3.8,15.79,15.79,0,0,0,1,6.53,7.8,7.8,0,0,1,.27,1.36,5.22,5.22,0,0,0,.7,2.18,2.58,2.58,0,0,1,.39,1.38c0,.17,0,.35-.23.37s-.21-.18-.21-.34a1,1,0,0,0-.21-.55,6.75,6.75,0,0,1-1.09-3,12,12,0,0,0-.71-2.63,8.8,8.8,0,0,1-.46-2.2c0-.11,0-.26-.15-.36-.09.2-.16.39-.25.57a.25.25,0,0,1-.31.15c-.13,0-.11-.16-.12-.26a.93.93,0,0,1,.15-.62,5.16,5.16,0,0,0,.63-3,11.11,11.11,0,0,0-.31-3c-.11-.41-.27-.64-.75-.46-.3.12-.62.16-.75-.29s-.39-.31-.66-.25a1.59,1.59,0,0,1-.07-.2c-.22-.64-.22-.64.49-.59a1.26,1.26,0,0,0,.43,0,.66.66,0,0,1,.79.23c.34.4.63.36.67-.14.06-.92.78-1,1.38-1.23a1.6,1.6,0,0,0,.68-.39c.18-.22.35-.55.66-.46S43.07,136.05,43.16,136.31Z"
         id="path100" />
      <path
         class="cls-21"
         d="M32.75,158.12a2.79,2.79,0,0,1-1.48.92,5.43,5.43,0,0,0-1.43.6c-.32.22-.36.42-.05.66a1.68,1.68,0,0,1,.55,1.89,11.49,11.49,0,0,0-.48,2.74,2.44,2.44,0,0,1-1.19,1.9,2.18,2.18,0,0,0-.83,1.44,4,4,0,0,1-1.8,2.86,6.93,6.93,0,0,0-1.33,1.32,3.19,3.19,0,0,1-2.25,1.12,11.17,11.17,0,0,0-1.26.24.14.14,0,0,1,0-.14,1.3,1.3,0,0,1,1-.37,3.37,3.37,0,0,0,2.68-1.44c.12-.15.28-.27.41-.43-.08-.1-.31,0-.31-.17s.12-.21.24-.25a3.68,3.68,0,0,0,1-.38,3.08,3.08,0,0,0,1.26-2.12c0-.16.15-.32.1-.46-.18-.58.23-.85.57-1.15a3.21,3.21,0,0,0,.95-1,2.92,2.92,0,0,0,.28-2.84c0-.15-.12-.36,0-.43s.27.21.4.32c.06-.15.11-.31.16-.45A2.24,2.24,0,0,0,30,161c-.12-.31-.29-.6-.7-.34a.17.17,0,0,1-.13-.08,2.74,2.74,0,0,0-2.73-3,1.76,1.76,0,0,0-1.95,1.18c-.07.12-.13.24-.3.24s-.05-.3-.11-.4c-.93.16-1.86.3-2.16,1.39a.19.19,0,0,1-.21.06c-.22-.68-.32-.7-1-.34a1.45,1.45,0,0,0-.85,1,.57.57,0,0,0-.08.25.89.89,0,0,1-.51.91c-.49.46-.4,1.14-.66,1.68a2,2,0,0,0-.14,1c0,.2.1.43-.16.56-.27,0-.25-.26-.28-.44s0-.6,0-.93c-.48.25-1,.45-1.42.73a1.49,1.49,0,0,0-.56.77c-.1.25-.21.5-.29.75a.89.89,0,0,1-.87.76,2.64,2.64,0,0,0-.84.64,1.83,1.83,0,0,0-.55,2.39,2,2,0,0,1,.13,1.4,7,7,0,0,0,0,2.65c-.05.07-.11.12-.2.05a3.62,3.62,0,0,1-.19-1.95,6.12,6.12,0,0,0-.23-2.75c-.33-1,.4-1.6,1-2.21a1.09,1.09,0,0,1,.4-.27,2.53,2.53,0,0,0,1.4-1.68,1.85,1.85,0,0,1,1.25-1.17,2.45,2.45,0,0,0,1.65-1.59,13.78,13.78,0,0,1,1.05-2.15,1.9,1.9,0,0,1,1.87-.93c.18,0,.34,0,.43-.15a1.5,1.5,0,0,1,1.17-.56,2.21,2.21,0,0,0,1.24-.48,2.61,2.61,0,0,1,3.18-.42,2.87,2.87,0,0,0,1.6.25.2.2,0,0,1,0,.22c-.1.11-.27.07-.43.18a2.49,2.49,0,0,1,.58.89c.07.15.18.3.37.18a9.8,9.8,0,0,1,1.88-.74c.38-.15.63-.55,1.07-.55Z"
         id="path102" />
      <path
         class="cls-22"
         d="M51.48,175.35A4.73,4.73,0,0,1,50.16,179c-.36.32-.2.73-.1,1.11a5.9,5.9,0,0,1-.06,3.76,3.4,3.4,0,0,1-4.13,2.05,5.79,5.79,0,0,1-2.37-1.23,1.1,1.1,0,0,0-.61-.32,8.06,8.06,0,0,1-3.42-1.58,4.25,4.25,0,0,1-2.07-2.45c-.15-.52-.22-1.05-.38-1.57a2.15,2.15,0,0,0-1.08-1.45,3,3,0,0,1-1.6-2.64,9.89,9.89,0,0,1,.15-2.3,19.77,19.77,0,0,1,1-4.22,5.26,5.26,0,0,0-.08-2.67,3.18,3.18,0,0,1,1.52-3.21,5.54,5.54,0,0,0,1.74-1.63,1.52,1.52,0,0,1,.69-.66.17.17,0,0,1,0,.15,8.79,8.79,0,0,0-1.19,1.94l-.06.14c-.08.14-.11.34-.3.33s-.07-.27-.19-.37a2.27,2.27,0,0,0-.45.28,3.18,3.18,0,0,0-1.36,1.66,1.66,1.66,0,0,0-.06,1.24c.19.54-.13,1.12.14,1.65a1.5,1.5,0,0,1,.08.81,19.7,19.7,0,0,1-.77,2.11,3.34,3.34,0,0,0-.19,1.74c.06.26-.15.43-.21.65-.32,1.4-.48,2.79.49,4a4.07,4.07,0,0,0,1.51,1.08c.29.16.28.17,0,.34,0,0,0,0,0,0a3.1,3.1,0,0,1,.41.76,7.46,7.46,0,0,1,.24,1,3.73,3.73,0,0,0,1.86,2.76c.2.11.38.25.58.38.47.29,1,.57,1.43.85a2.54,2.54,0,0,0,1.41.39c0-.23-.14-.39-.18-.59s-.19-.45.11-.61c.35.34.37.89.79,1.18.1.68.68.85,1.17,1.14a4.17,4.17,0,0,0,2.09.61A3,3,0,0,0,49.55,184a4.58,4.58,0,0,0,.47-2,6.92,6.92,0,0,0-.25-1.63c0-.21,0-.44-.3-.5s-.18-.24-.08-.38a6,6,0,0,1,.64-.78,3.48,3.48,0,0,0,.88-1.56,5.79,5.79,0,0,0,.24-1.24,1,1,0,0,1,.18-.59A.1.1,0,0,1,51.48,175.35Z"
         id="path104" />
      <path
         class="cls-23"
         d="M48.68,152.42c-.06-.16-.1-.32,0-.45a.25.25,0,0,1,.23.11,12.94,12.94,0,0,0,2.3,2.07l1.6,1.57a3.52,3.52,0,0,0,1.68.85A4.64,4.64,0,0,1,53,155.39a2.42,2.42,0,0,1,1.08-.19l.12,0c.32.15.63,0,.94,0,.47,0,.56.05.41.5a4,4,0,0,0-.26,1.14.32.32,0,0,1-.41.35,33.4,33.4,0,0,1-4.61-1.58,4.58,4.58,0,0,1-1.52-1.21.83.83,0,0,1,.75.18c.47.27.93.56,1.39.84a.88.88,0,0,0,.44.17.26.26,0,0,0,.28-.12c.07-.11,0-.21,0-.3a1.9,1.9,0,0,0-.41-.34A9.33,9.33,0,0,1,49,153,1.21,1.21,0,0,1,48.68,152.42Z"
         id="path106" />
      <path
         class="cls-24"
         d="M47.22,149.82A15.87,15.87,0,0,1,43.77,147a5.09,5.09,0,0,1-.77-2.49,20,20,0,0,1-.19-3.37,19.85,19.85,0,0,0-.15-2.78c-.08-.61.37-.8.65-1.14,0,.23.06.47.08.71,0,.85.1,1.7.12,2.56,0,1.59.05,3.18.16,4.77a3.15,3.15,0,0,0,1.7,2.79,5.55,5.55,0,0,1,1.6,1.33C47.09,149.47,47.3,149.57,47.22,149.82Z"
         id="path108" />
      <path
         class="cls-25"
         d="M55.77,158.2c-.1.35.18.5.36.78.22-.47.4-.94,1-1,.3-.2.58-.54,1-.2a.36.36,0,0,0,0,.09c-.12.29-.45.15-.63.32-.69.21-.85.82-1,1.41-.1.4.11.6.53.62a1.8,1.8,0,0,0,.72-.16c.17-.07.35-.22.55,0-.15.54-.68.47-1.06.65.29.37.77.48,1.06.84a5.6,5.6,0,0,1-1.28-.26,3.94,3.94,0,0,0-.69-.08,1.74,1.74,0,0,0,1.58,1.27c.19,0,.45-.12.57.16a1.57,1.57,0,0,1-1.65-.22,3.71,3.71,0,0,1-.55-.57,3.46,3.46,0,0,1-.46-.73c-.12-.31-.26-.22-.39,0a1.58,1.58,0,0,0,0,1.39,2.18,2.18,0,0,0,1.72,1.65c.21,0,.41.16.09.36s-.13.32-.18.48c0,.66.43,1,.89,1.34.09.07.32.07.14.28a6.29,6.29,0,0,1-1.45-.82,6.6,6.6,0,0,1-1.48-2.53L55,162.9a19.58,19.58,0,0,1-.26-2.16,2.75,2.75,0,0,1,.26-1.45c-.15.19-.07.53-.34.69a3.17,3.17,0,0,1,.34-1.16,2,2,0,0,0,.3-1.06c0-.1.15-.22.23-.09S55.82,158,55.77,158.2Z"
         id="path110" />
      <path
         class="cls-26"
         d="M69.11,166.92c0,.19,0,.38,0,.57a2.51,2.51,0,0,1-1,1.59c0-.06-.12-.09-.17-.15a.83.83,0,0,1,.31-.43c.43-.36.36-.9.49-1.37a.51.51,0,0,0-.27-.59c-.24-.09-.38.2-.57.31a.37.37,0,0,1-.2.49l-.08-.37a.79.79,0,0,1-.13-.26c0-.23.15-.21.26-.23.53-.09.76-.5,1-.88.15-.23-.19-.49-.68-.53a.35.35,0,0,1,0-.44c.3.08.21-.12.21-.27a1.75,1.75,0,0,0-.07-1.06h0c-.13-.1.1-.55-.34-.36l-.09,0c-.19-.33-.41-.58-.83-.31-.23-.12-.12-.25,0-.37a1.42,1.42,0,0,0,.39-1.31c0-.1-.09-.15-.13-.11s-.21.33-.43.36a.21.21,0,0,1-.16-.17,8.26,8.26,0,0,0,.43-1,.94.94,0,0,0,0-.62c-.18-.42-.37-.46-.72-.16-.06.06-.13.12-.22.06l-.07-.14c.06-.33.07-.67.14-1s-.38-.16-.45-.37c.29-.14.5,0,.71.17a4.07,4.07,0,0,0,.48.33c.13.09.25.18.22.36s.25.16.25.33a2.14,2.14,0,0,1,.53,1.31h0a3.68,3.68,0,0,0,0,1.1.49.49,0,0,0,.19.52,3.63,3.63,0,0,1,.89,1.23c-.07.5.25.88.39,1.32a.28.28,0,0,1,.06.3.66.66,0,0,1-.09.6A2.12,2.12,0,0,0,69.11,166.92Z"
         id="path112" />
      <path
         class="cls-22"
         d="M48.12,153.93l-.06.21a9.9,9.9,0,0,1-3.18-3.93,3.2,3.2,0,0,0-.29-.51.58.58,0,0,0-.68-.19c-.25.08-.28.32-.26.54.07.62.14,1.24.22,1.87.13,1,.27,2,.4,2.93a3.87,3.87,0,0,1-.31,2,6,6,0,0,0-.56,1.9c0,.18-.07.37.16.47a.22.22,0,0,1,0,.14c-.22.16-.49.11-.72.18s.33.23.1.42-.37.07-.55,0l-.4-.14a3.63,3.63,0,0,0-2,.11c-.18,0-.35.19-.55.07l0-.05a1.38,1.38,0,0,1,.86-.4c.95-.05,1.27-.74,1.47-1.47a12.27,12.27,0,0,0,.37-3,.76.76,0,0,1,.16.75c-.1.39-.06.8-.15,1.19a2.63,2.63,0,0,1-.56,2.13,3.36,3.36,0,0,0,1.4-.16c.17,0,.19-.21.2-.35a6.12,6.12,0,0,1,.55-2,4.47,4.47,0,0,0,.28-2.42c-.15-1.23-.42-2.44-.55-3.68a4,4,0,0,1,0-.69c.06-.62.48-.83,1.06-.56s.7,1,1,1.47A12.82,12.82,0,0,0,48.12,153.93Z"
         id="path114" />
      <path
         class="cls-24"
         d="M38.14,139.07A1.5,1.5,0,0,1,39,140a5.35,5.35,0,0,1,.19,3.66,9.36,9.36,0,0,0-.45,2.19,3.12,3.12,0,0,1-1,2,2.38,2.38,0,0,0-.7,1.06c-.23.68-.49,1.35-.73,2-.05,0-.12,0-.11-.09a16.44,16.44,0,0,1,.68-2.47,6.8,6.8,0,0,1,.94-1.31,2.35,2.35,0,0,0,.5-1.17c.12-1.16.35-2.3.48-3.45a5.52,5.52,0,0,0-.45-2.83C38.17,139.44,38.18,139.25,38.14,139.07Z"
         id="path116" />
      <path
         class="cls-27"
         d="M43.52,159.37l0-.11c1.83-.07,4.76,1.73,4.91,4.08a3.34,3.34,0,0,0,.6,1.65,4.54,4.54,0,0,1,.64,1.42,2.45,2.45,0,0,0,1,1.43,2.57,2.57,0,0,1,1.07,2.65,4.27,4.27,0,0,0,0,1,2.24,2.24,0,0,1,0,1,7.1,7.1,0,0,0-.31,2.89l-.09,0c-.18-.14-.13-.35-.15-.54a1.26,1.26,0,0,0-.3-.72c-.13-.48.32-.72.45-1.09a2.91,2.91,0,0,0,.11-1.21c-.16.26-.1.52-.26.68s-.15.07-.22,0a2.6,2.6,0,0,1,.06-1.11l.05-.15c.66-1.81.14-2.95-1.67-3.62l-.3-.11c-.13-.08-.37-.15-.28-.32s.45-.05.68-.12a1.61,1.61,0,0,0-.23-.71,5,5,0,0,0-.46-1.07c-.39-.57-.42-.58-.84,0-.1.12-.16.28-.33.33a.21.21,0,0,1-.12-.21,7.6,7.6,0,0,1,.43-1,2,2,0,0,0,.07-1.24,3.28,3.28,0,0,0-1.34-2.18,5.48,5.48,0,0,0-2.69-1.28A.77.77,0,0,1,43.52,159.37Z"
         id="path118" />
      <path
         class="cls-17"
         d="M63.43,154.75c-.08.22-.21.22-.36.08s-.19-.16-.32-.07-.37-.06-.55-.14a3.75,3.75,0,0,0-1.93-.25,1,1,0,0,0-.74.39,3.53,3.53,0,0,0-.21.32c0,.08-.11.2-.23.18s-.13-.19-.16-.3c0-.37-.29-.38-.57-.38a3.4,3.4,0,0,1-1.31,0c-.06-.45.06-.61.6-.77a.82.82,0,0,0,.88.19c.12,0,.28,0,.31-.18s-.14-.17-.24-.24a.2.2,0,0,1-.11-.11c0-.17.1-.22.24-.25l.16-.17.16-.07a8.43,8.43,0,0,1,.87.33c-.19-.19-.62-.25-.64-.69l.24,0c.32,0,.49.21.66.4a2,2,0,0,0,1.53.77A2.82,2.82,0,0,1,63.43,154.75Z"
         id="path120" />
      <path
         class="cls-28"
         d="M38.31,139.58c.21,0,.18.17.22.29a7,7,0,0,1,.16,3.75,18.47,18.47,0,0,0-.3,2.11,2.2,2.2,0,0,1-.6,1.4,6.44,6.44,0,0,0-1.52,3.77,6.76,6.76,0,0,1-2,2.83,31.38,31.38,0,0,0-2.43,2.86,3.79,3.79,0,0,1-1.83,1.35.7.7,0,0,1-.86.13l.07-.19a3.21,3.21,0,0,0,2.62-1.55,29,29,0,0,1,2.81-3.25,6.41,6.41,0,0,0,1.66-3.48,4.08,4.08,0,0,1,1-2.21,3.34,3.34,0,0,0,.9-2.07c.07-.7.16-1.39.29-2.08A7.7,7.7,0,0,0,38.31,139.58Z"
         id="path122" />
      <path
         class="cls-25"
         d="M64,167.63a2.4,2.4,0,0,1-3.12.39c.07.52.36.79,1,.86a8.63,8.63,0,0,0,1.44.06c.28,0,.62-.11.82.22-.3.13-.62-.16-.92.05l-.38,0a.3.3,0,0,0-.24-.08,2.72,2.72,0,0,1-1.81-.48c-.43-.29-1-.36-1.38-.68L58.66,167c.26-.11-.18-.26.06-.41.54.67.84,1.61,1.89,1.75a6.49,6.49,0,0,1-.45-2,1.87,1.87,0,0,1,1.36-2c.09.17-.14.34,0,.5.22.37.42.75.92.8.1,0,.23.1.19.22s-.28.07-.41.17c.16.18.6.18.51.44s-.47.14-.72.11a2.5,2.5,0,0,1-1.28-.5s-.1-.13-.16-.13-.11.15-.1.23a2.1,2.1,0,0,0,1,1.88,2.08,2.08,0,0,0,2-.27C63.88,167.42,63.88,167.42,64,167.63Z"
         id="path124" />
      <path
         class="cls-29"
         d="M47.22,149.82a4.22,4.22,0,0,0-1.74-1.64,3.47,3.47,0,0,1-1.9-3.12c-.15-2.31-.06-4.62-.29-6.92,0-.11,0-.22.1-.26a49.55,49.55,0,0,1,.26,5.31c0,.83.11,1.65.17,2.47a2.64,2.64,0,0,0,1.42,2.16,7.11,7.11,0,0,1,2.81,2.89c.05.23.21.45.09.7-.42-.36-.38-1-.77-1.37A1.7,1.7,0,0,1,47.22,149.82Z"
         id="path126" />
      <path
         class="cls-30"
         d="M58.73,153.2l-.22.27c-.16.37-.52.33-.83.38s-.62.27-.59.7c0,.24-.24.29-.41.38a2,2,0,0,0-1,1.94c0,.45.42.55.6.84-.2.14-.27.41-.52.49s-.22-.37-.41-.49a2.49,2.49,0,0,1,0-1.68,2.15,2.15,0,0,1,.75-1.25c.59-.42.93-1.15,1.68-1.39A2.17,2.17,0,0,1,58.73,153.2Z"
         id="path128" />
      <path
         class="cls-31"
         d="M47.92,137.11a5.67,5.67,0,0,1-.56-1.43q-.15-.44.27-.51c.27,0,.6-.19.75.18s.35,1,.53,1.56C48.57,137,48.26,137.09,47.92,137.11Z"
         id="path130" />
      <path
         class="cls-28"
         d="M13.44,173.94l.15-.07c.15,0,.21.12.28.21a1.56,1.56,0,0,0,2,.61,4.35,4.35,0,0,0,.85-.46c.07,0,.19-.07.11-.19-.32-.47.1-.36.29-.34a3.24,3.24,0,0,1,1,.22,3.23,3.23,0,0,0,2.55-.19c.18-.07.35-.21.56-.07l0,.15a3.94,3.94,0,0,1-3.25.41c-.49-.2-.92.17-1.32.43a2.3,2.3,0,0,1-2,.41A1.85,1.85,0,0,1,13.44,173.94Z"
         id="path132" />
      <path
         class="cls-32"
         d="M45.16,135.54a1.16,1.16,0,0,0-1.08.17c-.14-.24-.07-.52-.16-.77-.21-.57.07-.68.55-.76.27-.05.52,0,.55.37A5.49,5.49,0,0,1,45.16,135.54Z"
         id="path134" />
      <path
         class="cls-33"
         d="M47.92,137.11a1,1,0,0,1,1-.2c.09.37.38.66.4,1.06-.29.13-.66.05-.89.34A4.69,4.69,0,0,1,47.92,137.11Z"
         id="path136" />
      <path
         class="cls-22"
         d="M40.24,149.12c.5,1,.44,2.2.85,3.25a24.7,24.7,0,0,0,.87,2.36.46.46,0,0,1,.09.45A11.2,11.2,0,0,1,41,152.57c-.35-.89-.38-1.85-.65-2.76-.12-.41-.26-.85-.85-.73-.07,0-.12,0-.14-.06C39.72,148.65,39.87,148.67,40.24,149.12Z"
         id="path138" />
      <path
         class="cls-34"
         d="M37.5,153.52a4.63,4.63,0,0,1-1.62,1.61,30.35,30.35,0,0,0-2.67,2.65c-.14.13-.24.31-.46.34v0c-.08-.23.1-.36.23-.5a23.37,23.37,0,0,1,3.62-3.41c.3-.2.43-.58.77-.73A.13.13,0,0,1,37.5,153.52Z"
         id="path140" />
      <path
         class="cls-35"
         d="M63.25,169.21c.29-.33.61-.1.92-.05,1.66,1,2.63,1,3.76-.23.1,0,.24-.05.17.15a2.53,2.53,0,0,1-3.27.6A3.81,3.81,0,0,0,63.25,169.21Z"
         id="path142" />
      <path
         class="cls-36"
         d="M56.11,154.78c0,.05,0,.12,0,.14-.93.75-.8,1.78-.75,2.79a1.56,1.56,0,0,1-.39,1.11,3.92,3.92,0,0,0,.2-1,.6.6,0,0,0-.29-.62c.08,0,.22-.08.22-.13a7.33,7.33,0,0,1,.39-1.65c.06-.13-.08-.17-.2-.15s-.38.08-.58.1-.39.15-.51-.12C54.84,155.09,55.55,155.24,56.11,154.78Z"
         id="path144" />
      <path
         class="cls-37"
         d="M37.5,153.52l-.1,0a.45.45,0,0,1,.06-.46,18.1,18.1,0,0,0,1.39-3.37c.09-.25.14-.57.51-.62l.12.05a2.91,2.91,0,0,0-.47,1.08A9.79,9.79,0,0,1,37.5,153.52Z"
         id="path146" />
      <path
         class="cls-36"
         d="M54.63,160l.3-.82a11.94,11.94,0,0,0,.06,3.43,1.62,1.62,0,0,1,0,.31A6.89,6.89,0,0,1,54.63,160Z"
         id="path148" />
      <path
         class="cls-38"
         d="M59.44,168a6.61,6.61,0,0,1,1,.38,4.47,4.47,0,0,0,2.38.75s.06.07.09.11A4.91,4.91,0,0,1,59.44,168Z"
         id="path150" />
      <path
         class="cls-39"
         d="M55.08,163.22c.38.58.59,1.26,1,1.84.16.25.56.3.51.69A4.06,4.06,0,0,1,55.08,163.22Z"
         id="path152" />
      <path
         class="cls-40"
         d="M39.36,149a1,1,0,0,0-.27.39,19,19,0,0,1-1.69,4.06c-.66,1-1.74,1.48-2.52,2.31s-1.43,1.54-2.14,2.31c-.89.75-2.11.82-3.05,1.46-.2.14-.28,0-.35-.16a3.19,3.19,0,0,0-.8-1.25c.22-.13.45,0,.65-.08l.86-.13c.06.41.32.52.7.49a3.8,3.8,0,0,0,1.84-.93,3.6,3.6,0,0,0,.77-.74,10.09,10.09,0,0,1,2.53-2.21,3.3,3.3,0,0,0,1-1.35A24.35,24.35,0,0,0,38.19,150a3.29,3.29,0,0,1,.73-1.18c.59-.61,1-.52,1.32.29C40,148.9,39.68,148.76,39.36,149Z"
         id="path154" />
      <path
         class="cls-24"
         d="M44.4,149.36c-.75-.12-1,.1-.91.87.16,1.41.36,2.81.58,4.21a4.08,4.08,0,0,1-.26,2.26,5.78,5.78,0,0,0-.58,2.27c0,.15,0,.24-.19.26l-1.54.23c-.24,0-.34-.08-.16-.26a3.44,3.44,0,0,0,.72-2.09l0,0c.14.26.06.73.53.69s.56-.4.68-.74a7,7,0,0,0,0-5.13,5.15,5.15,0,0,1-.3-2.37c0-.33,0-.71.35-.85s.59.14.82.38Z"
         id="path156" />
      <path
         class="cls-41"
         d="M36.82,151.35c.08-.45.19-.94.24-1.44a1.89,1.89,0,0,1,.77-1.47,3,3,0,0,0,.94-1.27c0-.12.1-.27.24-.24s.15.2.13.31c-.09.52-.19,1-.76,1.28a1.3,1.3,0,0,0-.82,1.16,9.88,9.88,0,0,1-1.83,4.18.58.58,0,0,1-.2.18c-.1.06-.22.18-.34.07s0-.23.08-.33a12.93,12.93,0,0,0,1.26-1.86C36.61,151.74,36.71,151.57,36.82,151.35Z"
         id="path158" />
      <path
         class="cls-42"
         d="M60.56,156c0,.11.1.13.2.11a2.64,2.64,0,0,1,1.57.19c.15.07.55,0,.23.42-.06.08.26.46.5.58s.59.35.61.72c0,.16.1.16.18.22a.66.66,0,0,1,.28.71c-.19.4.06,1-.49,1.27-.14.08-.3.19-.41.15-.45-.13-.87-.27-1-.85a19.93,19.93,0,0,0-.61-1.9c-.17,0-.36.29-.54,0,.06-.16.23-.14.39-.23a3.2,3.2,0,0,1-2-1.08C59.84,156.17,60.12,155.84,60.56,156Z"
         id="path160" />
      <path
         class="cls-43"
         d="M57,165c-.26-.36-.19-.58.28-.67a2.2,2.2,0,0,1-2-1.8.78.78,0,0,1,.44-.89.41.41,0,0,1,.54.1c.05,0,.13.06.17.12a2,2,0,0,0,2,.79c.14.11.41,0,.47.17s-.14.39-.3.54l-1,.93a1.47,1.47,0,0,1,.94.39.42.42,0,0,0-.23-.35c-.11-.07-.35-.05-.22-.27s.27-.34.48-.18a2.06,2.06,0,0,0,1.58.33,2.28,2.28,0,0,1-1.34,1.07C58.23,165.46,57.58,165.12,57,165Z"
         id="path162" />
      <path
         class="cls-44"
         d="M60.77,165.88a3.7,3.7,0,0,0,2,.59c-.31-.32-.79-.22-.85-.7l.62,0c-.55-.14-1-.32-1-1l2.19.27c-.08,1,.91.58,1.25,1.05-.09.25-.45.14-.64.33.24.21.44.09.63-.06s.15-.13.23-.08.08.19,0,.3a1.56,1.56,0,0,1-1.18,1c-.28-.24-.25.17-.41.18A2.52,2.52,0,0,1,61,167C60.73,166.7,60.46,166.32,60.77,165.88Z"
         id="path164" />
      <path
         class="cls-45"
         d="M58.23,161.51a4.85,4.85,0,0,1-1.4-.89c.52-.19,1.07-.16,1.38-.62,0-.2.15-.23.31-.23a6.23,6.23,0,0,1,2.07-.84,1.29,1.29,0,0,1,.37-.06c.33.07.74.07.83.48a.77.77,0,0,1-.43.84c-.4.24-.63.68-1,.93A2.54,2.54,0,0,1,58.23,161.51Z"
         id="path166" />
      <path
         class="cls-44"
         d="M62.43,161.5c-.26-.05-.35.26-.69.24a1.75,1.75,0,0,1,1.38-.6,8.31,8.31,0,0,0,1,.15c.34,0,.35.25.14.48a1.79,1.79,0,0,1-1.17.67c.23.16.64.05.39.45.38-.12.3-.57.64-.66.24.6.24.6-.69,1.34.23-.1.45-.22.68-.31s.22-.27.36-.08a.47.47,0,0,1,0,.46,1.59,1.59,0,0,1-1.48.51,4.89,4.89,0,0,0-.92-.28c-.25,0-.25.12-.3.27a.77.77,0,0,1-.25-.46l.49,0a1.3,1.3,0,0,0-.37-.76c-.2-.17-.29,0-.37.26a1.57,1.57,0,0,1-.17-.73c.5.49.67.2.79-.21S62.31,161.79,62.43,161.5Z"
         id="path168" />
      <path
         class="cls-46"
         d="M56.29,157.71c-.68-.26-.77-.44-.74-1.16a2.23,2.23,0,0,1,1.54-2c.47,0,.94-.09,1.42-.1.29,0,.59,0,.51.46l-.07,0a1.65,1.65,0,0,0-1.78.7c.24.09.5,0,.73.12s.44.1.36.41l-.06.05A7.69,7.69,0,0,1,56.29,157.71Z"
         id="path170" />
      <path
         class="cls-45"
         d="M58.52,159.77l-.31.23c-.38.07-.69.36-1.1.37-.66,0-.87-.17-.84-.82a1.87,1.87,0,0,1,1.13-1.45c.12.39.35.45.69.26a1.91,1.91,0,0,1,.58-.26c.31.39.77.3,1.18.38a2.41,2.41,0,0,1,.63.2A5.15,5.15,0,0,0,58.52,159.77Z"
         id="path172" />
      <path
         class="cls-45"
         d="M66.14,159.33l0,0c.23-.1.1-.64.58-.45a.86.86,0,0,1,.53.86,1.49,1.49,0,0,1-.63,1.29,6.41,6.41,0,0,1-1.31.22.63.63,0,0,1-.71-.49c-.12-.32,0-.5.24-.73S65.78,159.65,66.14,159.33Z"
         id="path174" />
      <path
         class="cls-47"
         d="M67,162.61c.55-.52.61-.5.83.31-.25.62-.69,1.15-.91,1.8a.91.91,0,0,1-.83.51c-.24,0-.27-.24-.36-.41a.66.66,0,0,1,.19-.86A4,4,0,0,0,67,162.61Z"
         id="path176" />
      <path
         class="cls-48"
         d="M59.43,154.71c.26-.59.84-.54,1.3-.53a3.35,3.35,0,0,1,2,.58c.11.06.23.14.19.28s-.18.08-.28.08h-.85l-1.51-.2C59.8,155.16,59.67,155.13,59.43,154.71Z"
         id="path178" />
      <path
         class="cls-48"
         d="M60.56,156c-.39,0-.63.42-1,.32a.64.64,0,0,1-.42-.73c0-.41.27-.51.56-.58a1.61,1.61,0,0,1,.69,0A2.5,2.5,0,0,1,62,156C61.47,156,61,155.8,60.56,156Z"
         id="path180" />
      <path
         class="cls-49"
         d="M64.82,157.58c0,.1,0,.26.1.27.65.05.92.47.66,1a3.5,3.5,0,0,1-.9,1,7.35,7.35,0,0,0-.55-2.13c-.07-.13,0-.27.08-.41h0a.49.49,0,0,1,.61.22Z"
         id="path182" />
      <path
         class="cls-50"
         d="M58.1,157.79c-.38-.13-.67.15-1,.2.72-1.07,2.18-1.83,3.38-.59-.56,0-1.13,0-1.57.34-.06.2-.16,0-.24,0Z"
         id="path184" />
      <path
         class="cls-43"
         d="M59,163.84c-.09-.1-.52-.07-.39-.29s.43-.73.9-.77a1.88,1.88,0,0,1,1,.24.56.56,0,0,1,.3.49c0,.21-.21.22-.34.29A1.49,1.49,0,0,1,59,163.84Z"
         id="path186" />
      <path
         class="cls-45"
         d="M58.67,157.76l.24,0a9.49,9.49,0,0,1,1.42-.13,1.5,1.5,0,0,1,1.33,1.26,11,11,0,0,0-2.63-.74C58.86,158.08,58.61,158.06,58.67,157.76Z"
         id="path188" />
      <path
         class="cls-51"
         d="M60.35,155.05c-.47.09-1,0-1.25.58-.26-.26-.29.09-.37.17-.25.25-.32.65-.61.91-.07-.21.05-.34.08-.49h0c.17-.08.06-.3.18-.36-.36.11-.72-.12-1.09-.17s-.07-.22,0-.31a1.72,1.72,0,0,1,1.71-.47h0l.07.28c.19-.12.11-.42.34-.48.23.33.56.21.87.21Z"
         id="path190" />
      <path
         class="cls-52"
         d="M67.48,166.71c.15,0,.17.14.13.26s-.28,0-.22.21c.12.44-.09.63-.5.7-.24.05-.51,0-.71.18h0c-.17-.09-.16-.19-.06-.34C66.46,167.22,66.77,166.7,67.48,166.71Z"
         id="path192" />
      <path
         class="cls-53"
         d="M68.11,164.63a.67.67,0,0,1,0,.44,1.35,1.35,0,0,1-1.07.47c-.13,0-.27,0-.34-.11s.07-.21.13-.31A1.11,1.11,0,0,1,68.11,164.63Z"
         id="path194" />
      <path
         class="cls-54"
         d="M61.77,155.23a2.13,2.13,0,0,0,1.09.15c.12,0,.25,0,.31.11s0,.65-.26.76-.57-.17-.76-.39S61.58,155.62,61.77,155.23Z"
         id="path196" />
      <path
         class="cls-55"
         d="M67.69,167.34l.2-.49c.53.18.45.59.22.89a1.51,1.51,0,0,1-1,.72C67.13,168,67.64,167.77,67.69,167.34Z"
         id="path198" />
      <path
         class="cls-56"
         d="M66.83,161.18l.57-.74c.18.17,0,.33,0,.49a3.06,3.06,0,0,1-1,1.19c-.12.07-.29.23-.42,0s.13-.22.21-.31S66.6,161.4,66.83,161.18Z"
         id="path200" />
      <path
         class="cls-50"
         d="M58.67,158.1a1.65,1.65,0,0,1-.75.47c-.43.17-.58,0-.52-.47.17-.22.45-.13.66-.22Z"
         id="path202" />
      <path
         class="cls-57"
         d="M64.55,161.51a1.88,1.88,0,0,1,.27,1.78A1.67,1.67,0,0,1,64.55,161.51Z"
         id="path204" />
      <path
         class="cls-44"
         d="M65,165.74a1,1,0,0,1-.85-.14c-.14-.06-.35-.14-.19-.4s.34-.29.54-.12A1.19,1.19,0,0,1,65,165.74Z"
         id="path206" />
      <path
         class="cls-58"
         d="M66.21,158.2a.81.81,0,0,1-.14,1c-.15,0-.26.27-.41.12s0-.29.07-.44.22-.21.11-.46S66,158.12,66.21,158.2Z"
         id="path208" />
      <path
         class="cls-59"
         d="M66.18,168.06a1,1,0,0,0,.52,0c.36,0,.33.23.2.42s-.48.09-.7,0-.2-.29,0-.45Z"
         id="path210" />
      <path
         class="cls-60"
         d="M68.25,163.3a.68.68,0,0,1,.07,1.06A.66.66,0,0,1,68.25,163.3Z"
         id="path212" />
      <path
         class="cls-61"
         d="M67,158.47c-.43-.16-.71-.59-1.19-.64l-.7-.27c0-.23-.23-.42-.1-.66a4.9,4.9,0,0,0,1.5.95C66.7,158,67,158.11,67,158.47Z"
         id="path214" />
      <path
         class="cls-62"
         d="M67.76,163.61c.11.29.28.53,0,.74s-.34.11-.39,0S67.48,163.81,67.76,163.61Z"
         id="path216" />
      <path
         class="cls-60"
         d="M67.91,163l.07-.4c.21.25.52.4.27.76C68,163.28,68,163.11,67.91,163Z"
         id="path218" />
      <path
         class="cls-63"
         d="M48.69,155c2.09,1,2.45,2.82,1.94,4.88A5.94,5.94,0,0,1,48.69,155Z"
         id="path220" />
      <path
         class="cls-45"
         d="M48.68,152.42a10.83,10.83,0,0,0,2.76,2.42c.23.16.59.36.35.71s-.58.22-.9,0a11.51,11.51,0,0,0-2.14-1.2c-.21-.08-.2-.25-.19-.44A7.83,7.83,0,0,1,48.68,152.42Z"
         id="path222" />
      <path
         class="cls-64"
         d="M51.26,154.15A6.75,6.75,0,0,1,48.73,152a6,6,0,0,1,0-1.75A20.79,20.79,0,0,0,51.26,154.15Z"
         id="path224" />
      <path
         class="cls-63"
         d="M63.43,154.75a.57.57,0,0,1-.25-.08,3.17,3.17,0,0,0-2.12-.88c-.43,0-.65-.42-.94-.68l-.6-.53c-.19-.19-.36-.4-.56-.57-.36-.3-.29-.55.06-.76a5.86,5.86,0,0,0,1.12-.63c.12-.11.23,0,.34.07a34,34,0,0,1,3.11,2.11A1.29,1.29,0,0,1,63.43,154.75Z"
         id="path226" />
      <path
         class="cls-63"
         d="M67,158.47a1.68,1.68,0,0,0-1-.71,1.48,1.48,0,0,1-1-.86,3.74,3.74,0,0,0-.62-1.84c-.38-.43-.11-1,.12-1.49a5.79,5.79,0,0,1,1.16,1A19.74,19.74,0,0,1,68,157.12a1.73,1.73,0,0,1,.25.41c.12.35.34.73,0,1.06a.87.87,0,0,1-1.1.1Z"
         id="path228" />
      <path
         class="cls-65"
         d="M69,163.22a15,15,0,0,0-1.19-1.45c-.1-.09,0-.24,0-.35s.08-.24.21-.29.24-.17.29-.38a16.21,16.21,0,0,0,.43-2.35,6.83,6.83,0,0,1,1.09,2.74,2.08,2.08,0,0,1-.35,1.88C69.36,163.24,69.21,163.34,69,163.22Z"
         id="path230" />
      <path
         class="cls-66"
         d="M57.25,149l2.45,1.28c.28.14.18.3,0,.42a3.7,3.7,0,0,0-1.07.71c-.11.13-.19,0-.25-.06A4.57,4.57,0,0,1,57.25,149Z"
         id="path232" />
      <path
         class="cls-67"
         d="M69.11,166.92a1.23,1.23,0,0,1,.07-1.47,2.85,2.85,0,0,0,.26-.65c.19-.11.18-.35.36-.52A9.59,9.59,0,0,1,69.11,166.92Z"
         id="path234" />
      <path
         class="cls-68"
         d="M69,163.22l.49-.2c.3-.12.34,0,.27.27-.11.4-.23.81-.35,1.21A1.31,1.31,0,0,1,69,163.22Z"
         id="path236" />
      <path
         class="cls-69"
         d="M68,160.33c-.29-.39-.29-.89-.53-1.31a.8.8,0,0,1,.27,0c.22.11.61-.29.66.05S68.46,160.05,68,160.33Z"
         id="path238" />
      <path
         class="cls-17"
         d="M64.82,157.58l-.61-.22.15-1,.13,0A4.12,4.12,0,0,1,64.82,157.58Z"
         id="path240" />
      <path
         class="cls-70"
         d="M59.28,152.6l.87.78c-.38-.13-.85,0-1.1-.42l-.09-.52C59.11,152.41,59.16,152.58,59.28,152.6Z"
         id="path242" />
      <path
         class="cls-59"
         d="M63.78,156c-.05-.18-.11-.37-.16-.56s-.2-.28,0-.35a.33.33,0,0,1,.39.2,1.56,1.56,0,0,1,.09.74C64,156.28,63.88,156.19,63.78,156Z"
         id="path244" />
      <path
         class="cls-69"
         d="M68,161.13c0,.12-.06.25-.21.29.08-.36-.15-.77.16-1.09C68.36,160.57,67.79,160.87,68,161.13Z"
         id="path246" />
      <path
         class="cls-17"
         d="M63.78,156c.11.06.22.12.34,0a1.14,1.14,0,0,1,0,.63A1,1,0,0,1,63.78,156Z"
         id="path248" />
      <path
         class="cls-40"
         d="M21.24,173.66c-.29.12-.58.21-.85.34a3.91,3.91,0,0,1-2.91-.1,1.49,1.49,0,0,0-.74-.06l.48.22c-1.36,1-2.76,1.48-3.63-.19a5.49,5.49,0,0,1,0-3.06,1.57,1.57,0,0,0-.21-.91c-.46-1.21-.32-1.83.62-2.54a.64.64,0,0,1,0,.47.87.87,0,0,0,.38,1,1,1,0,0,0,1.16.06c.26-.19.72-.25.78-.5s-.4-.43-.59-.68a11.88,11.88,0,0,0-.92-1s.06-.07.08-.07c.61,0,.7-.54.87-1s.28-1,.82-1.31c.09.25-.1.41-.18.6a1.75,1.75,0,0,0-.12,1.4,1.24,1.24,0,0,0,1.19.84c.25,0,.5.07.74.1a.47.47,0,0,0,.52-.69c-.1-.25-.29-.45-.41-.69s-.33-.53-.06-.83c.25-.11.1-.31.09-.46a2,2,0,0,1,.14-1.08c.22.1.15.3.17.47.05.34.14.66.22,1a.67.67,0,0,0,.74.58c.42,0,.43-.42.46-.74a1.38,1.38,0,0,0-.14-.63,4.77,4.77,0,0,1-.44-1.81c0-.25-.17-.43-.26-.64.49-.21.34-.73.51-1.09.06,0,.12,0,.13.08a1.2,1.2,0,0,0,1,.94c-.06.36-.39.58-.47.93a1,1,0,0,0-.05.65.46.46,0,0,1,.05-.49c.25,0,.21.2.25.34a4.73,4.73,0,0,1,.05.75c0,.67.4,1.09.94,1.09a1.2,1.2,0,0,0,1.2-1.21c-.07-.73-.41-1.41-.44-2.15,0-.14-.17-.16-.29-.21s-.53-.13-.62-.44,0-.66.19-.94l.13-.07a.27.27,0,0,1,.22.13c.25.34.49.25.78,0,.47-.36.86-.79,1.32-1.16.14,0,.15-.16.2-.27a8.27,8.27,0,0,1,1.18.62c.11.09.23.21.18.36s-.25.12-.38.09a1.67,1.67,0,0,0-1.43.25,1.51,1.51,0,0,0-.54,1.89c.09.23.19.46.27.7a1.6,1.6,0,0,0,1.71,1.18,1.2,1.2,0,0,1,.38,0c.47.18.84.16,1-.44,0-.1.12-.16.21-.23a1.6,1.6,0,0,0,.43-2.21c-.1-.17-.36-.37-.17-.56s.46,0,.59.18c.49.54.95.29,1.43,0l.09,0c.27.12.11.29,0,.43a.85.85,0,0,0,.42,1.3c.11,0,.25.06.34.16l-.28.75c-.21-.19-.12-.46-.37-.61l0,.33c-.27,0-.32-.18-.42-.34a2.94,2.94,0,0,0-.31-.5c-.15-.16-.32-.22-.39.06-.23.94-.71,1.78-1,2.7a1,1,0,0,0,.33,1.11.82.82,0,0,0,1.09.06c.12-.09.25-.21.43-.1a2.2,2.2,0,0,1-.91.95c-.27.18-.38.47-.62.64-.06,0-.12.12,0,.18.36.27,0,.5,0,.75-.31,0-.57-.24-.88-.29a.18.18,0,0,1,0-.2s0,.07,0,.1a1.47,1.47,0,0,1-1,1.31,2,2,0,0,0-.32.18,1.5,1.5,0,0,1-2.14,0c.11.11.33.15.41.35a2.41,2.41,0,0,1-1,1,.71.71,0,0,0-.45.72c.05.54.36.74.88.55a1.81,1.81,0,0,0,1.12-1.4c.08-.28-.21-.44-.2-.7a4.87,4.87,0,0,0,1.67-.72.2.2,0,0,1,.25,0,.31.31,0,0,1,0,.25.64.64,0,0,0,.32,1c-.33.31-.81.24-1.16.52l.43,0s0,.09,0,.11a10.77,10.77,0,0,1-1.44,1.5,2,2,0,0,1-1.18.48A5.91,5.91,0,0,0,21.24,173.66Z"
         id="path250" />
      <path
         class="cls-16"
         d="M29.2,160.6c-.74,1.07-1.32.12-2-.17a2.45,2.45,0,0,1,.52,1.81,1.08,1.08,0,0,1-.16.56c-.27.42-.91.55-1,1.17,0,.05-.19.13-.27.11-.81-.21-1.81.15-2.4-.68a3.14,3.14,0,0,1-.75-2.67,1.74,1.74,0,0,1,2.12-1.07c.11,0,.2.06.38.11a1.05,1.05,0,0,0-.69-.58,1,1,0,0,1-.63-.46,1.86,1.86,0,0,1,2.12-1.25,3,3,0,0,1,2.67,1.87A1.44,1.44,0,0,1,29.2,160.6Z"
         id="path252" />
      <path
         class="cls-71"
         d="M29.18,166c-.42.22-.77.63-1.35.33a1.23,1.23,0,0,1-.64-1.48,17.29,17.29,0,0,0,1-2.79c.05-.36.27-.34.53-.11s.33.81.71,1.06A3,3,0,0,1,29.18,166Z"
         id="path254" />
      <path
         class="cls-16"
         d="M18.25,165.13c-.11.5.22.85.47,1.21s.34.62.11.93a.67.67,0,0,1-.88.16,1.16,1.16,0,0,0-.42,0,1.49,1.49,0,0,1-1.45-2,5.24,5.24,0,0,1,.49-1l1.61-.85A4.89,4.89,0,0,0,18.25,165.13Z"
         id="path256" />
      <path
         class="cls-45"
         d="M19.23,161.81a.53.53,0,0,1,.4.62,4.3,4.3,0,0,0,.44,1.8,1.47,1.47,0,0,1,.1,1c-.08.27-.15.58-.54.56s-.71-.1-.84-.51a6.91,6.91,0,0,1-.31-1.68l.33-1.24A1.12,1.12,0,0,1,19.23,161.81Z"
         id="path258" />
      <path
         class="cls-45"
         d="M14.8,166.74a1.24,1.24,0,0,1,.64.44,3.39,3.39,0,0,0,1,1c.24.11.23.25,0,.37a5.67,5.67,0,0,0-.81.42,1.15,1.15,0,0,1-1.48-.07,1,1,0,0,1-.28-1.26l.09-.26A1.64,1.64,0,0,1,14.8,166.74Z"
         id="path260" />
      <path
         class="cls-71"
         d="M20.87,161.71a.63.63,0,0,1-.93-.45c-.06-.18-.13-.36-.2-.54.11-.75.71-1,1.29-1.28s.71-.13.68.62a2.42,2.42,0,0,1-.13,1C21.5,161.44,21.2,161.59,20.87,161.71Z"
         id="path262" />
      <path
         class="cls-45"
         d="M26.77,168.22c.39-.22.56.14.8.29a2.87,2.87,0,0,1-1.38,2.25c-.62-.07-.78-.38-.49-.94.06-.11.1-.23.15-.34C26.22,169.1,26.39,168.58,26.77,168.22Z"
         id="path264" />
      <path
         class="cls-16"
         d="M24.16,159a4.2,4.2,0,0,1-1.53,1.46c-.42.31-.59-.19-.79-.47A1.94,1.94,0,0,1,24,158.52C24.4,158.53,24.15,158.83,24.16,159Z"
         id="path266" />
      <path
         class="cls-71"
         d="M30.09,162.53a1.54,1.54,0,0,1-1.2-.88.47.47,0,0,1,.18-.47c.15-.15.35-.28.22-.54.07-.34.22-.41.49-.16C30.43,161.08,30.27,161.8,30.09,162.53Z"
         id="path268" />
      <path
         class="cls-72"
         d="M43.51,184.05a1.33,1.33,0,0,1-.72-1.19,1.16,1.16,0,0,0-1.1-.84,1,1,0,0,1-.48-.22l-1.79-1.28a5.72,5.72,0,0,1-1.36-1.83,3.74,3.74,0,0,1-.71-1.49c0-.31-.33-.5-.58-.68A3,3,0,0,1,35.48,174c0-.84.06-1.68,0-2.53a3.79,3.79,0,0,1,.74-1.88,2.88,2.88,0,0,0,.38-2,3.19,3.19,0,0,1,.36-2.24,8,8,0,0,0,.3-1A2.35,2.35,0,0,1,39,162.86a5.09,5.09,0,0,0,1.85-.84,8.65,8.65,0,0,1,1.53-.9,3.07,3.07,0,0,1,4.17,2,7.88,7.88,0,0,1,.22,3c-.07.56.11,1.11.08,1.66,0,.23.23.4.4.56a5,5,0,0,1,1.4,2.07,1,1,0,0,0,.13.3,11.23,11.23,0,0,1,1.36,2.35,3.62,3.62,0,0,1,.36,2.71c-.09.5-.31,1-.41,1.5a2.05,2.05,0,0,1-1.23,1.48,1.12,1.12,0,0,0-.73,1.24,3.85,3.85,0,0,0,0,.59,5.07,5.07,0,0,1-.76,3.13,1.28,1.28,0,0,1-.82.65,4.31,4.31,0,0,1-2.75-.08A.48.48,0,0,1,43.51,184.05Z"
         id="path270" />
      <path
         class="cls-73"
         d="M43.51,184.05a4.91,4.91,0,0,0,2.68.31,1.63,1.63,0,0,0,1.27-1A5.81,5.81,0,0,0,48,180a1.13,1.13,0,0,1,.76-1.28,1.86,1.86,0,0,0,1.2-1.35,7.26,7.26,0,0,0,.47-3.2,2.59,2.59,0,0,0-.35-.95,2.26,2.26,0,0,1-.55-1.14.2.2,0,0,0-.06-.15,20.49,20.49,0,0,1-1.63-2.69,1.4,1.4,0,0,0-.23-.3c-1.21-.82-.92-2-.9-3.21a5.64,5.64,0,0,0-.55-3.19,3,3,0,0,0-4.44-.87,8.83,8.83,0,0,1-2.91,1.45c-1,.22-1.34,1.06-1.55,1.95a2.05,2.05,0,0,1-.22.6,2.31,2.31,0,0,0-.3,1.71,3.78,3.78,0,0,1-.62,2.86,2.88,2.88,0,0,0-.46,1.94,9,9,0,0,1,0,1.55,2.92,2.92,0,0,0,1.37,2.8c.21.14.48.31.49.54a4.19,4.19,0,0,0,.68,1.61l-.06,0a1,1,0,0,0-.88,0c-.09-.31-.53-.52-.25-.94.07-.09-.1-.1-.17-.13-.56-.31-1.21-.51-1.54-1.13a1.11,1.11,0,0,0,.15-1.16,3.31,3.31,0,0,1-.14-2,1.26,1.26,0,0,0,0-.27c.07-.63,0-.72-.61-.68.33-.38.16-.83.17-1.24a7.21,7.21,0,0,1,.86-2.73c.1-.22.06-.45.17-.65.37.23.19.57.15.86a4.72,4.72,0,0,0-.15.85c.16-.34.34-.68.49-1a1,1,0,0,0-.57-1.41c-.06-.38-.33-.74,0-1.15.05-.06-.07-.26-.1-.39a1,1,0,0,0,.8-.76,3.2,3.2,0,0,1,.65-1.17.82.82,0,0,0,0-1.2l.65-.42,0,.64.21-.48a1.35,1.35,0,0,0,.87.06A5.79,5.79,0,0,0,41.39,161c.48-.33.84-.65.6-1.28.3,0,.56.27.92.2-.12-.26-.41-.18-.53-.36.1-.17.28-.1.42-.14.4.28.87.41,1.29.67A8.73,8.73,0,0,1,46.2,162a3,3,0,0,1,.66,1.56c0,.58.28,1.1.33,1.66s.35-.12.47.09l.06.14a1,1,0,0,1,0,.95c-.22.15-.3-.06-.39-.17s-.12,0-.16,0-.11.37-.09.57a1.32,1.32,0,0,0,.38,1.16,4.47,4.47,0,0,1,1.19,1.76,3.11,3.11,0,0,0,.67,1,2.48,2.48,0,0,1,.54.92,4.24,4.24,0,0,0,.82,1.43c.06.09.1.27.26.18s.11-.22.07-.34-.19-.42.08-.58l.14-.06c.24.11.15.43.34.57a2.22,2.22,0,0,1-.4.68c-.09.13-.2.25-.09.42a.14.14,0,0,1,0,.15c-.27.11-.25.32-.18.54a2.22,2.22,0,0,1-.12,1.62,5.35,5.35,0,0,0-.33,1.12,2.32,2.32,0,0,1-1.43,1.7.77.77,0,0,0-.47.75,6.81,6.81,0,0,0,0,1.86,1,1,0,0,1-.25.9,1,1,0,0,0-.27.52c-.12.71-.68,1.06-1.17,1.47a.91.91,0,0,1-.87.16,3.76,3.76,0,0,0-1.06,0c-.27,0-.22.25-.32.38a2.91,2.91,0,0,1-1-.73C43.45,184.36,43.31,184.22,43.51,184.05Z"
         id="path272" />
      <path
         class="cls-40"
         d="M44.57,185.23c-.18-.35-.22-.57.32-.53a4.81,4.81,0,0,1,1.31,0c.24.08.48-.13.72-.27.82-.48.87-1.45,1.4-2.12.21-.25.11-.74,0-1.09-.23-.62.18-1.21.05-1.84-.05-.19.27-.24.45-.31a2,2,0,0,0,1.35-1.42c.14-.68.45-1.28.61-1.94a1.81,1.81,0,0,0-.1-1.05c-.11-.27-.15-.61.34-.55a5.78,5.78,0,0,1,0,2.38c0,.24-.12.49.05.71-.2,1.07-1.08,1.69-1.66,2.52.69-.19.46.34.52.65-.56-.11-.6-.07-.46.47.08.27.2.53.27.81a.36.36,0,0,0,.43.29,3.54,3.54,0,0,1-3,3.93A4,4,0,0,1,44.57,185.23Z"
         id="path274" />
      <path
         class="cls-71"
         d="M42,159.76c.38.56.33.71-.19,1.15a7.34,7.34,0,0,1-3.25,1.5c-.31.07-.36-.17-.49-.32a5.93,5.93,0,0,1,1.32-2,5.25,5.25,0,0,1,1.84-.42A1.35,1.35,0,0,1,42,159.76Z"
         id="path276" />
      <path
         class="cls-40"
         d="M38.15,178.64c.31.22.37.6.55.9a7.7,7.7,0,0,0,2.11,1.79,2.57,2.57,0,0,0,1.48.68c.52,0,.48.48.5.85-.27.21-.07.42,0,.62a6.32,6.32,0,0,0,.35.67c-1.36.13-2.26-.65-3.21-1.29a.89.89,0,0,0-.16-1.21,13.63,13.63,0,0,1-1.54-2.4c-.09-.18-.24-.37-.11-.6Z"
         id="path278" />
      <path
         class="cls-45"
         d="M38.12,178.65a12,12,0,0,0,1.93,3.13c.4.5.4.68-.12,1.08a4.06,4.06,0,0,1-2.5-3.05c-.06-.39-.14-.77-.22-1.15C37.51,178.17,37.82,178.4,38.12,178.65Z"
         id="path280" />
      <path
         class="cls-74"
         d="M34.69,172.36c.56-.38.72-.31.76.36a1.83,1.83,0,0,1,0,.47,3.77,3.77,0,0,0,.16,2.25c.16.39.21.81-.32,1a1.79,1.79,0,0,1-.6-1A5.78,5.78,0,0,1,34.69,172.36Z"
         id="path282" />
      <path
         class="cls-71"
         d="M37.16,162.35c.45.2.61.52.34.91a9.37,9.37,0,0,0-1.08,2,.46.46,0,0,1-.73.26A2.82,2.82,0,0,1,37.16,162.35Z"
         id="path284" />
      <path
         class="cls-75"
         d="M35.81,167c.26-.22.46-.13.61.14a1.43,1.43,0,0,1,0,1.53,5.85,5.85,0,0,0-.41.93c-.06.12-.13.25-.28.18s0-.19,0-.29c0-.59.46-1.14.19-1.77A1.6,1.6,0,0,0,35.81,167Z"
         id="path286" />
      <path
         class="cls-76"
         d="M50.12,182c-.17.29-.35.3-.47,0s-.24-.78-.39-1.16-.14-.48.08-.62.39.07.54.23A3.78,3.78,0,0,1,50.12,182Z"
         id="path288" />
      <path
         class="cls-77"
         d="M51,177.23c-.31.07-.3-.19-.26-.33a14.23,14.23,0,0,0,.24-2.76.31.31,0,0,0,0-.1c.49.32.24.85.34,1.27A9.45,9.45,0,0,1,51,177.23Z"
         id="path290" />
      <path
         class="cls-78"
         d="M55,160.88a5.85,5.85,0,0,1,.39-2.37c.63.29.5.77.45,1.26S55.43,160.53,55,160.88Z"
         id="path292" />
      <path
         class="cls-79"
         d="M56.22,161.69c-.7-.19-.82.32-1,.79a1.41,1.41,0,0,1,.2-1.72c.16-.15.26-.21.35.08A5.65,5.65,0,0,0,56.22,161.69Z"
         id="path294" />
      <path
         class="cls-80"
         d="M56.87,165.61a4.25,4.25,0,0,1-1.3-1.9A2.42,2.42,0,0,1,56.87,165.61Z"
         id="path296" />
      <path
         class="cls-81"
         d="M56,160.1a1.68,1.68,0,0,1,.64.82C56,161,55.81,160.72,56,160.1Z"
         id="path298" />
      <path
         class="cls-17"
         d="M68.66,164.07a.9.9,0,0,1,.28.71c0,.17-.06.33-.29.27s-.29-.12-.22-.34Z"
         id="path300" />
      <path
         class="cls-71"
         d="M46.78,163.66a6,6,0,0,0-3.61-3.84c-.16-.08-.43,0-.37-.36l.72-.09A5.49,5.49,0,0,1,48,162.24a1.3,1.3,0,0,1,.17.77A2,2,0,0,1,48,164.3a.59.59,0,0,1-.61.35c-.27,0-.37-.24-.43-.48S46.83,163.83,46.78,163.66Z"
         id="path302" />
      <path
         class="cls-45"
         d="M49.15,167.28a3.59,3.59,0,0,1,2,1.21,2.43,2.43,0,0,1,.11,2.85c-.15.11-.12.29-.16.44a.4.4,0,0,1-.36.35.41.41,0,0,1-.44-.25,8.77,8.77,0,0,1-.9-2.11,3.37,3.37,0,0,0-.85-1.72.74.74,0,0,1-.19-.36C48.4,167.17,48.45,167.14,49.15,167.28Z"
         id="path304" />
      <path
         class="cls-40"
         d="M48.55,168a3.41,3.41,0,0,1,1,2.08,11.86,11.86,0,0,0,.87,1.88c.08.22.37.16.5-.09s.09-.39.29-.49l-.15,1.09a.52.52,0,0,0,.07.55.45.45,0,0,1-.24.63c-.25.14-.21-.2-.31-.31s-.08-.17-.14-.23a2.37,2.37,0,0,1-.69-1.21c-.07-.54-.56-.89-.83-1.34a10.86,10.86,0,0,0-1.9-2.76c-.28-.25-.17-.61,0-.92.36,0,.44.38.63.59s.31.52.67.53C48.39,168,48.46,168.15,48.55,168Z"
         id="path306" />
      <path
         class="cls-45"
         d="M48,165.12c.07-.26.21-.48.48-.51s.34.26.46.44a2.78,2.78,0,0,1,.5,1.17c.08.36-.15.52-.43.63a.72.72,0,0,1-.83-.16A1.34,1.34,0,0,1,48,165.12Z"
         id="path308" />
      <path
         class="cls-40"
         d="M48,165.12a1.43,1.43,0,0,0,.06,1.13c.15.26.25.57.64.54a.72.72,0,0,0,.74-.57,2.56,2.56,0,0,1,.38,1c-.26-.06-.47-.11-.69-.14-.05,0-.18,0-.13.09s.11.06.18.1c-.26.11-.78-.22-.74.42-.54-.23-.67-.74-.81-1.23.19-.31,0-.67.12-1C47.79,165.36,47.79,165.18,48,165.12Z"
         id="path310" />
      <path
         class="cls-40"
         d="M46.78,163.66a.93.93,0,0,1,.22.53.4.4,0,0,0,.37.35.43.43,0,0,0,.46-.29,4.4,4.4,0,0,0,.35-1.24,2.18,2.18,0,0,1-.3,1.92c-.07.15-.15.28-.22.42-.51.34-.58.31-.62-.3S46.68,164.15,46.78,163.66Z"
         id="path312" />
      <path
         class="cls-82"
         d="M51.54,172.94c-.49,0-.19-.4-.34-.57l0-.1c.05-.27,0-.75.24-.72s.16.49.17.77A3.34,3.34,0,0,1,51.54,172.94Z"
         id="path314" />
      <path
         class="cls-76"
         d="M57.68,153.85c.22-.25.6-.15.83-.38.2.06.5-.09.52.29s-.28.29-.48.33S57.84,154.38,57.68,153.85Z"
         id="path316" />
      <path
         class="cls-24"
         d="M60.77,165.88a1.52,1.52,0,0,0,.88,1.46,3.62,3.62,0,0,0,2,.48,2,2,0,0,1-3.31-1.75.6.6,0,0,1,.13-.45C60.61,165.63,60.67,165.79,60.77,165.88Z"
         id="path318" />
      <path
         class="cls-44"
         d="M61.37,166.08c-.22-.18-.52-.28-.67-.62s.07-.55.3-.69.29.18.38.33a5.16,5.16,0,0,1,.32.67c0,.11.17.22,0,.34S61.51,166.13,61.37,166.08Z"
         id="path320" />
      <path
         class="cls-41"
         d="M62.41,162.37a1.77,1.77,0,0,1,.66-.79.36.36,0,0,1,.52.09c.12.19,0,.34-.21.41S62.81,162.46,62.41,162.37Z"
         id="path322" />
      <path
         class="cls-17"
         d="M59,154.91c-.65,0-1.33,0-1.76.66.87.33.93.33,1.42,0a1.64,1.64,0,0,1-.48.68c-.15-.57-.65-.31-1-.41-.09,0-.22.11-.28,0s.06-.18.12-.26C57.59,154.9,58.45,154.53,59,154.91Z"
         id="path324" />
      <path
         class="cls-16"
         d="M23.47,165.28c.36-.64.87-.5,1.41-.28a2.65,2.65,0,0,0,.62.14,1.2,1.2,0,0,1,1.09,1.31,3.9,3.9,0,0,1-.25,1.36c-.33.82-.68,1-1.53.94a6.3,6.3,0,0,1-1.72-.38,2.13,2.13,0,0,1-1.24-2.4.81.81,0,0,1,.59-.33C22.81,165.58,23.12,165.37,23.47,165.28Z"
         id="path326" />
      <path
         class="cls-16"
         d="M19.3,170.78c.2.45.32.86-.17,1.24a1.85,1.85,0,0,1-1.86.29,3.91,3.91,0,0,1-1.58-1.62.89.89,0,0,1,.45-1.34q.27-.14.54-.24a1.1,1.1,0,0,1,1.53.44c.14.18.17.44.43.53A1.29,1.29,0,0,1,19.3,170.78Z"
         id="path328" />
      <path
         class="cls-16"
         d="M21.12,166.39a6.93,6.93,0,0,0,.8,2.37c.16.21.33.42.5.62s.25.29.18.47a.47.47,0,0,1-.48.29,3.57,3.57,0,0,1-2.67-1c-.53-.61-.42-2.46.58-2.86a1.13,1.13,0,0,1,1,0A.11.11,0,0,1,21.12,166.39Z"
         id="path330" />
      <path
         class="cls-16"
         d="M22.14,161.36c.3,0,.47,0,.46.41a5.36,5.36,0,0,0,.35,1.66,1.3,1.3,0,0,1-1.13,1.71,1.07,1.07,0,0,1-1.23-1.1,3.87,3.87,0,0,0-.12-1.22A1.46,1.46,0,0,1,22.14,161.36Z"
         id="path332" />
      <path
         class="cls-45"
         d="M24,170.19a1.45,1.45,0,0,1-.52,2.05c-.14.08-.29.14-.44.21a.61.61,0,0,1-.88-.21.86.86,0,0,1,.12-1.13,8,8,0,0,0,1.32-1.06A.28.28,0,0,1,24,170.19Z"
         id="path334" />
      <path
         class="cls-45"
         d="M21.24,171.14c.56.22.65.49.32,1a1,1,0,0,1-1.48.45.59.59,0,0,1-.26-.69c.07-.31.19-.58.57-.62a.71.71,0,0,0,.51-.14A.24.24,0,0,1,21.24,171.14Z"
         id="path336" />
      <path
         class="cls-53"
         d="M14.75,173.61a.65.65,0,0,1-.39-.27,4.31,4.31,0,0,1-.65-1.45c0-.13,0-.26.1-.33s.26,0,.32.11a4.6,4.6,0,0,0,1.51,1.4c.25.13.09.42-.16.53A1.14,1.14,0,0,1,14.75,173.61Z"
         id="path338" />
      <path
         class="cls-83"
         d="M24,170.19l-.4-.14c-.12-.27-.46-.3-.6-.59a1.82,1.82,0,0,0,2.27.17,2.75,2.75,0,0,0,1.44-2c.15.26-.06.43.08.57-.34.39-.42,1-.92,1.26S24.71,170.23,24,170.19Z"
         id="path340" />
      <path
         class="cls-84"
         d="M17.24,173c-.76,0-1.44,0-1.87-.64s-1.44-1.34-.61-2.43a3.48,3.48,0,0,0-.16.88c0,.16,0,.34.11.46.68.71,1.14,1.75,2.39,1.61Z"
         id="path342" />
      <path
         class="cls-85"
         d="M21.24,171.14H20.9c-.53-.14-1.12,0-1.6-.36l-.66-.7c0-.06,0-.26.09-.15.84,1.1,2,1.08,3.17.94.05,0,.1,0,.17,0C21.8,171.1,21.5,171.05,21.24,171.14Z"
         id="path344" />
      <path
         class="cls-86"
         d="M21.12,166.39l-.06-.13c.21-.4-.29-.38-.36-.67,1,.51,1.84-.07,2.69-.48.05,0,.11-.12.13,0a.44.44,0,0,1-.05.15,8.58,8.58,0,0,1-1.62.69A1.08,1.08,0,0,0,21.12,166.39Z"
         id="path346" />
      <path
         class="cls-87"
         d="M22.14,161.36c-.83,0-1.35.47-1.67,1.46,0,.19-.08.37-.13.64a1.74,1.74,0,0,1,.53-1.75c.17-.29.51-.39.71-.65C21.72,161.24,22,161.11,22.14,161.36Z"
         id="path348" />
      <path
         class="cls-88"
         d="M47.54,180.22a4.83,4.83,0,0,1-.33,2.47,1.84,1.84,0,0,1-2.34,1.16,2.41,2.41,0,0,0-.37-.07,1.38,1.38,0,0,1-1.11-2.12c.12-.24.18-.48,0-.62s-.34.1-.46.28a1.24,1.24,0,0,1-1.66,0,15.22,15.22,0,0,0-1.62-1.14,3,3,0,0,1-1.09-1.73,1.29,1.29,0,0,1,.9-1.46c.17-.06.39-.19.5,0s-.13.28-.26.38a1.09,1.09,0,0,0-.16,1.71.94.94,0,0,0,1.46,0c.28-.27.51-.59.81-.85s.12-.45,0-.66-.16-.22-.09-.34.23-.08.35-.06a8.77,8.77,0,0,1,1.2.3,1.36,1.36,0,0,1,.88.94c-.08.37-.37.72-.15,1.15.2-.14.16-.42.36-.52.17.33-.11.6-.15.91a2,2,0,0,0,.4-.7c.14-.4.44-.5.84-.53A2,2,0,0,1,47.54,180.22Z"
         id="path350" />
      <path
         class="cls-89"
         d="M41,164.77a4.5,4.5,0,0,0,.61,1.47,3.09,3.09,0,0,1,.47,1.95,1,1,0,0,1-1,1c-.35.05-.71.05-1.07.1-.21,0-.28.08-.2.38a7.23,7.23,0,0,1,.26,4.41c0,.1-.09.2-.11.3-.18.88-.61,1.53-1.59,1.51a2.21,2.21,0,0,1-2.18-1.18,2.66,2.66,0,0,1,.21-1.36,1.45,1.45,0,0,0,.07-.8,1.84,1.84,0,0,1,.38-1.41,2.28,2.28,0,0,0,.43-1c.13-.72.31-.86,1.08-.9.07,0,.19,0,.18-.12l-.16-.17a2.07,2.07,0,0,1-1-2.21,1.5,1.5,0,0,1,.16-.62,17.89,17.89,0,0,1,1.12-1.75c.39-.62,1.14-.63,1.79-.1C40.7,164.45,40.8,164.65,41,164.77Z"
         id="path352" />
      <path
         class="cls-88"
         d="M46.08,163.32a1.31,1.31,0,0,1,.19.86c0,.47,0,.93,0,1.39a3.08,3.08,0,0,1-.94,2,.37.37,0,0,1-.44.11,3.34,3.34,0,0,0-1.36-.2,1.55,1.55,0,0,1-1.23-.77,4.36,4.36,0,0,1-.63-1.11,1.39,1.39,0,0,1,.16-1.09,4.57,4.57,0,0,0,.5-1.35c.21-1,.58-1.25,1.59-1.06a4.4,4.4,0,0,1,.63.13A2,2,0,0,1,46.08,163.32Z"
         id="path354" />
      <path
         class="cls-88"
         d="M49.84,173.52a1.57,1.57,0,0,1,.26,1.11,7.92,7.92,0,0,1-.72,3,1.36,1.36,0,0,1-1.88.72c-.62-.24-1.23-.5-1.82-.79s-.36-.76-.21-1.2a3.34,3.34,0,0,0,.15-2.16c-.13-.74,0-.85.69-.92a2.89,2.89,0,0,0,1-.45A1.35,1.35,0,0,1,49,173C49.24,173.18,49.6,173.27,49.84,173.52Z"
         id="path356" />
      <path
         class="cls-89"
         d="M46.85,168.51a4.28,4.28,0,0,1,1.64,2.74c0,.29,0,.45-.32.5a4.1,4.1,0,0,0-1.06.39,3.18,3.18,0,0,1-3.22-.1c-.22-.12-.47-.18-.69-.29a1.3,1.3,0,0,1-.79-.83,1.33,1.33,0,0,1,.3-1.49,2,2,0,0,1,1.3-1,1.64,1.64,0,0,1,1.14.12.85.85,0,0,0,.87.05A1.94,1.94,0,0,1,46.85,168.51Z"
         id="path358" />
      <path
         class="cls-89"
         d="M42.8,171.75a7.39,7.39,0,0,1,1.83,1.56,2.46,2.46,0,0,1,.08,3.21,1.21,1.21,0,0,1-1.42.45l-1.7-.51a1,1,0,0,1-.7-.61,4.6,4.6,0,0,1,.21-2.67,2.39,2.39,0,0,0,0-1c0-.29,0-.59.25-.77a.89.89,0,0,1,.92,0C42.44,171.54,42.55,171.77,42.8,171.75Z"
         id="path360" />
      <path
         class="cls-90"
         d="M46.08,163.32s-.13,0-.14,0c-.59-1-1.64-1-2.59-1.11-.62-.09-.75.48-.83.93a3.7,3.7,0,0,1-.58,1.54c-.2.28-.08.65-.24,1a1,1,0,0,1-.35-.86c0-.58-.07-1.15-.14-1.72a1.1,1.1,0,0,1,.27-.85,2.47,2.47,0,0,1,2.19-1,2.64,2.64,0,0,1,2.31,1.9A1.86,1.86,0,0,0,46.08,163.32Z"
         id="path362" />
      <path
         class="cls-91"
         d="M44.07,178.4a3,3,0,0,0-2.35-1.15c-.07.19.15.2.22.31.21.3.28.59-.1.81s-.48.53-.74.77-.66.57-1.15.4a1.39,1.39,0,0,1-.93-1.21,1,1,0,0,1,.6-1.09,3,3,0,0,1,.32-.17,1.25,1.25,0,0,0-1.31,1.13c0,.1,0,.22-.11.27l0-.05c-.7-1-.7-1.43.81-2a2.11,2.11,0,0,1,1.58,0,27.67,27.67,0,0,0,2.7.92C44.35,177.54,44.37,177.65,44.07,178.4Z"
         id="path364" />
      <path
         class="cls-92"
         d="M41,164.77c-.07.13-.12.13-.22,0a1.52,1.52,0,0,0-.64-.56c-.74-.3-1.12-.15-1.45.59-.23.48-.63.85-.87,1.34a2.18,2.18,0,0,0,.49,2.58c.1.08.15.15.12.27-1.1-.34-1.53-1.18-1.3-2.49a10.51,10.51,0,0,1,.87-2.24,1.74,1.74,0,0,1,1.15-.92A1.43,1.43,0,0,1,41,164.77Z"
         id="path366" />
      <path
         class="cls-93"
         d="M46.85,168.51v.06c-.58-.11-1.06.6-1.73.14a1.54,1.54,0,0,0-2.13.62,1.2,1.2,0,0,1-.25.34.82.82,0,0,0-.25,1.14s-.05.07-.08.11a2.2,2.2,0,0,1,.22-2.72,1.83,1.83,0,0,1,1.93-.16.71.71,0,0,0,1.09-.22c.34-.43.59-.38.81.13A1.87,1.87,0,0,0,46.85,168.51Z"
         id="path368" />
      <path
         class="cls-93"
         d="M42.8,171.75a.6.6,0,0,1-.59-.16.75.75,0,0,0-.81-.06c-.29.14-.25.44-.17.67a3,3,0,0,1-.17,1.79,2.75,2.75,0,0,0-.08,1.63c0,.07.19.25-.09.23a3.21,3.21,0,0,1-.34-1.92,11.21,11.21,0,0,0-.09-3,1.46,1.46,0,0,1,0-.42c0-.54.25-.68.72-.42a3.28,3.28,0,0,1,1,.88C42.37,171.27,42.59,171.51,42.8,171.75Z"
         id="path370" />
      <path
         class="cls-92"
         d="M49.84,173.52a3.57,3.57,0,0,1-1.12-.56.86.86,0,0,0-1-.11c-.58.23-1.08.68-1.78.64-.37,0-.29.34-.23.58a3.58,3.58,0,0,1,.07,1.69c0,.24-.06.51-.32.64a4.18,4.18,0,0,0-.42-3c-.2-.35.05-.59.38-.58a5.61,5.61,0,0,0,2.31-.63,1.26,1.26,0,0,1,1.6.5A3.34,3.34,0,0,1,49.84,173.52Z"
         id="path372" />
      <path
         class="cls-92"
         d="M38.58,169.17c.13,0,.29-.08.38.12-.17.2-.4.09-.6.09-.59,0-.85.19-.9.76A2.15,2.15,0,0,1,37,171.3a1.41,1.41,0,0,0-.33,1.15,1.74,1.74,0,0,1-.18,1.29c-.2.32,0,.7-.23,1a1.91,1.91,0,0,1-.21-1c0-.75.06-1.5.13-2.24a2.08,2.08,0,0,1,.26-.76,7.08,7.08,0,0,0,.63-1.47c.09-.33.29-.42.61-.31A1.67,1.67,0,0,0,38.58,169.17Z"
         id="path374" />
      <path
         class="cls-92"
         d="M47.54,180.22c-.31-.16-.38-.51-.57-.76s-.31-.53-.52-.51c-.51.05-1-.22-1.52,0a.34.34,0,0,0-.22.29,2.78,2.78,0,0,1-.77,1.15,5,5,0,0,1,.34-1.31c.31-.73.65-1,1.21-.93a2.1,2.1,0,0,1,2,1.49A4.36,4.36,0,0,1,47.54,180.22Z"
         id="path376" />
      <path
         class="cls-94"
         d="M48.3,168c-.28.31-.4-.05-.51-.16-.29-.31-.53-.66-.79-1s-.36-.46.11-.56c.09,0,.19,0,.24.05A5.65,5.65,0,0,1,48.3,168Z"
         id="path378" />
      <path
         class="cls-95"
         d="M48.3,168c-.27-.45-.56-.9-.82-1.36a.72.72,0,0,0-.37-.36c0-.08-.07-.45.22-.14.1.1.18.22.27.33.31.38.44.89.81,1.23l.14.26.05.32C48.4,168.28,48.43,168.06,48.3,168Z"
         id="path380" />
      <path
         class="cls-20"
         d="M24,166.16c-.26-.07-.3-.26-.22-.39s.26-.56.54-.36a2.61,2.61,0,0,0,1.26.33c.18,0,.45.08.39.34s-.28.22-.49.19A3,3,0,0,0,24,166.16Z"
         id="path382" />
      <path
         class="cls-96"
         d="M44.09,180.85c.28-.5.4-1.16,1.22-1.34a1.32,1.32,0,0,1,1.75,1.22,1.82,1.82,0,0,1-1.12,1.71,2,2,0,0,1-1.95-.72C43.8,181.42,44,181.17,44.09,180.85Z"
         id="path384" />
      <path
         class="cls-97"
         d="M40.63,165.44a4.86,4.86,0,0,1,.51,1.11,2,2,0,0,1,0,1.36.77.77,0,0,1-.88.55,5,5,0,0,0-.69-.08,1.15,1.15,0,0,1-1-1.79,2.63,2.63,0,0,0,.5-1.1.82.82,0,0,1,.62-.79c.45-.12.58.24.78.5A.53.53,0,0,1,40.63,165.44Z"
         id="path386" />
      <path
         class="cls-98"
         d="M40.63,165.44a3.33,3.33,0,0,1-.25-.28c-.14-.21-.27-.41-.59-.36a.61.61,0,0,0-.51.61,2.12,2.12,0,0,1-.54,1.24c-.34.41-.16.84,0,1.26s.49.35.82.33a3.08,3.08,0,0,1,.53,0c.63.07.89-.11,1-.72,0-.34,0-.68,0-1a1.89,1.89,0,0,1,.32,1.22,1,1,0,0,1-1.33.93c-.19,0-.38-.18-.56-.15-.68.1-.93-.35-1.21-.83a1.21,1.21,0,0,1,.21-1.42,1.77,1.77,0,0,0,.39-.92,1,1,0,0,1,.85-.9C40.2,164.48,40.55,164.89,40.63,165.44Z"
         id="path388" />
      <path
         class="cls-90"
         d="M39.61,174.28c-.37,1-.41,1-1.38,1.08a.43.43,0,0,1-.25,0,2,2,0,0,1-.58-2.05,4.49,4.49,0,0,0,.65-1.56.86.86,0,0,1,1.71,0A4,4,0,0,1,39.61,174.28Z"
         id="path390" />
      <path
         class="cls-99"
         d="M47.79,173.21a.84.84,0,0,1,.8.2,6.19,6.19,0,0,1,1.06,1.11.8.8,0,0,1-.36,1.14,2.17,2.17,0,0,1-1.55.27,1.5,1.5,0,0,1-1.19-1.7,1.23,1.23,0,0,1,1.24-1c0,.22-.21.26-.36.36-.53.34-.68.7-.48,1.21a1.08,1.08,0,0,0,1.29.79,1.45,1.45,0,0,0,.72-.36c.33-.29.3-.44,0-.79A5.42,5.42,0,0,0,47.79,173.21Z"
         id="path392" />
      <path
         class="cls-97"
         d="M45.62,171.61a.68.68,0,0,1-.28-.84c.16-.43.51-.5.89-.55a1.14,1.14,0,0,1,.89,0,.83.83,0,0,1,.4.87.8.8,0,0,1-.63.72A1.47,1.47,0,0,1,45.62,171.61Z"
         id="path394" />
      <path
         class="cls-100"
         d="M44.25,170.53a1.2,1.2,0,0,1-.56-1.49.63.63,0,0,1,.54-.3c.3,0,1.17,1,1.13,1.31S44.65,170.67,44.25,170.53Z"
         id="path396" />
      <path
         class="cls-96"
         d="M45.62,171.61a1.74,1.74,0,0,0,1,.15c.52-.11.83-.46.76-.87s-.35-.67-.92-.65a2.35,2.35,0,0,1-.26,0,.83.83,0,0,1,1,0,1.17,1.17,0,0,1,.53,1.05.57.57,0,0,1-.4.51A1.49,1.49,0,0,1,45.62,171.61Z"
         id="path398" />
      <path
         class="cls-99"
         d="M42.17,173.85a1,1,0,0,1,1.57-.6,1.71,1.71,0,0,1,.9,2.33,1.05,1.05,0,0,0-.08.36.91.91,0,0,1-1.46.7,4.16,4.16,0,0,1-1-1,.79.79,0,0,1-.16-.71A5.61,5.61,0,0,0,42.17,173.85Z"
         id="path400" />
      <path
         class="cls-97"
         d="M39.31,177.92a1.91,1.91,0,0,1,1.42-.93c.44,0,.63.34.78.7a.79.79,0,0,1-.26.91c-.19.19-.41.34-.59.54a.66.66,0,0,1-.79.13A1.19,1.19,0,0,1,39.31,177.92Z"
         id="path402" />
      <path
         class="cls-97"
         d="M44.42,180.6c.08-.28.2-.68.49-.73s.79-.39,1.23-.26.84,1.25.62,1.79a1.87,1.87,0,0,1-1.8.76C44.33,181.94,44.13,181.39,44.42,180.6Z"
         id="path404" />
      <path
         class="cls-97"
         d="M37.9,173.28c.27-.5.22-1.08.45-1.59a.58.58,0,0,1,1.11,0,4.56,4.56,0,0,1-.11,2.94,1,1,0,0,1-.92.55c-.37,0-.47-.3-.61-.63A1.41,1.41,0,0,1,37.9,173.28Z"
         id="path406" />
      <path
         class="cls-97"
         d="M47.79,173.21a1.36,1.36,0,0,1,1,.85.71.71,0,0,0,.23.29c.43.29.45.56.07.91a1.57,1.57,0,0,1-1.42.44c-.65-.12-.84-.64-1-1.15a.93.93,0,0,1,.5-1c.18-.11.37-.2.56-.3Z"
         id="path408" />
      <path
         class="cls-97"
         d="M44.42,175.53l-.09.25c-.32.88-.65,1-1.39.35a1.72,1.72,0,0,1-.35-2.46.75.75,0,0,1,.95-.27A1.42,1.42,0,0,1,44.42,175.53Z"
         id="path410" />
      <path
         class="cls-101"
         d="M95.88,132.72v.88c3.12,0,5.64,1.9,5.64,4.24s-2.52,4.23-5.64,4.23m0-9.61v.26m0,9.35c3.12,0,5.64,1.89,5.64,4.23s-2.52,4.23-5.64,4.23m0,0c3.12,0,5.64,1.9,5.64,4.23S99,159,95.88,159m0,0c3.12,0,5.64,1.9,5.64,4.24s-2.52,4.23-5.64,4.23V168"
         id="path412" />
      <path
         class="cls-101"
         d="M109.38,140.7v.87c3.12,0,5.64,1.88,5.64,4.19s-2.52,4.2-5.64,4.2m0-9.52v.26m0,9.26c3.12,0,5.64,1.87,5.64,4.19s-2.52,4.19-5.64,4.19m0,0c3.12,0,5.64,1.88,5.64,4.2s-2.52,4.19-5.64,4.19m0,0c3.12,0,5.64,1.88,5.64,4.19s-2.52,4.2-5.64,4.2v.52"
         id="path414" />
    </g>
  </g>
  <text
     xml:space="preserve"
     style="font-size:12px;line-height:1.25;font-family:sans-serif"
     x="2.9231386"
     y="-5.8462777"
     id="text2251"><tspan
       sodipodi:role="line"
       id="tspan2249"
       x="2.9231386"
       y="-5.8462777"
       style="font-size:12px">vie aeree superiori</tspan></text>
  <text
     xml:space="preserve"
     style="font-size:12px;line-height:1.25;font-family:sans-serif"
     x="59.067848"
     y="61.197632"
     id="text2251-0"><tspan
       sodipodi:role="line"
       id="tspan2249-9"
       x="59.067848"
       y="61.197632"
       style="font-size:12px">vie aeree </tspan><tspan
       sodipodi:role="line"
       x="59.067848"
       y="76.197632"
       style="font-size:12px"
       id="tspan8418">inferiori</tspan></text>
  <text
     xml:space="preserve"
     style="font-size:6.35607px;line-height:1.25;font-family:sans-serif;stroke-width:0.397254"
     x="96.066101"
     y="91.21756"
     id="text12718"
     transform="scale(0.83896348,1.191947)"><tspan
       sodipodi:role="line"
       id="tspan12716"
       x="96.066101"
       y="91.21756"
       style="stroke-width:0.397254">compliance polmonare</tspan></text>
  <text
     xml:space="preserve"
     style="font-size:4.41881px;line-height:1.25;font-family:sans-serif;stroke-width:0.276175"
     x="159.74431"
     y="114.99024"
     id="text13724"
     transform="scale(0.75687438,1.3212232)"><tspan
       sodipodi:role="line"
       id="tspan13722"
       x="159.74431"
       y="114.99024"
       style="stroke-width:0.276175">compliance</tspan><tspan
       sodipodi:role="line"
       x="159.74431"
       y="120.51376"
       id="tspan13726"
       style="stroke-width:0.276175">parete</tspan><tspan
       sodipodi:role="line"
       x="159.74431"
       y="126.03727"
       id="tspan13728"
       style="stroke-width:0.276175">toracica</tspan></text>
  <path
     style="fill:none;stroke:#f37400;stroke-width:1.9;stroke-linecap:butt;stroke-linejoin:miter;stroke-opacity:0.69655174;marker-end:url(#Arrow2Send);stroke-miterlimit:4;stroke-dasharray:none;marker-mid:url(#DiamondL)"
     d="m 77.350746,199.89771 v 29.45625"
     id="path14811"
     inkscape:path-effect="#path-effect14813"
     inkscape:original-d="m 77.350746,199.89771 v 29.45625" />
  <text
     xml:space="preserve"
     style="font-size:16px;line-height:1.25;font-family:sans-serif"
     x="83.197029"
     y="219.46025"
     id="text16902"><tspan
       sodipodi:role="line"
       id="tspan16900"
       x="83.197029"
       y="219.46025">inspirazione</tspan></text>
  <text
     xml:space="preserve"
     style="font-size:16px;line-height:1.25;font-family:sans-serif"
     x="-2.6982818"
     y="207.7677"
     id="text19852"><tspan
       sodipodi:role="line"
       id="tspan19850"
       x="-2.6982818"
       y="207.7677" /></text>
</svg>
