<?xml version="1.0" encoding="UTF-8" standalone="no"?>
<!-- Generator: Adobe Illustrator 25.0.0, SVG Export Plug-In . SVG Version: 6.00 Build 0)  -->

<svg
   version="1.1"
   id="Livello_1"
   x="0px"
   y="0px"
   viewBox="0 0 595.3 841.9"
   style="enable-background:new 0 0 595.3 841.9;"
   xml:space="preserve"
   sodipodi:docname="RLC.svg"
   inkscape:version="1.1.1 (3bf5ae0d25, 2021-09-20)"
   xmlns:inkscape="http://www.inkscape.org/namespaces/inkscape"
   xmlns:sodipodi="http://sodipodi.sourceforge.net/DTD/sodipodi-0.dtd"
   xmlns="http://www.w3.org/2000/svg"
   xmlns:svg="http://www.w3.org/2000/svg"><defs
   id="defs69" /><sodipodi:namedview
   id="namedview67"
   pagecolor="#ffffff"
   bordercolor="#666666"
   borderopacity="1.0"
   inkscape:pageshadow="2"
   inkscape:pageopacity="0.0"
   inkscape:pagecheckerboard="0"
   showgrid="false"
   inkscape:zoom="2.8284271"
   inkscape:cx="319.43549"
   inkscape:cy="265.69537"
   inkscape:window-width="1546"
   inkscape:window-height="1081"
   inkscape:window-x="440"
   inkscape:window-y="95"
   inkscape:window-maximized="0"
   inkscape:current-layer="Livello_1" />
<style
   type="text/css"
   id="style2">
	.st0{fill:none;stroke:#000000;stroke-width:2;stroke-linecap:square;}
	.st1{fill-opacity:0;stroke:#000000;stroke-width:2;stroke-linecap:square;}
	.st2{fill:#569AC7;stroke:#1B3C98;}
	.st3{fill-opacity:0;stroke:#FFFFFF;stroke-width:2;}
	.st4{fill-opacity:0;stroke:#FFFFFF;stroke-width:2;stroke-linecap:square;}
</style>
<line
   class="st0"
   x1="152"
   y1="373.3"
   x2="312"
   y2="373.3"
   id="line4"
   style="stroke-width:1.99600208;stroke-miterlimit:4;stroke-dasharray:none" />
<line
   class="st0"
   x1="152"
   y1="203.3"
   x2="152"
   y2="373.3"
   id="line6"
   style="stroke-width:1.99600208;stroke-miterlimit:4;stroke-dasharray:none" />
<line
   class="st0"
   x1="152.45265"
   y1="203.3"
   x2="196.17874"
   y2="203.3"
   id="line8"
   style="stroke-width:2.40974283;stroke-miterlimit:4;stroke-dasharray:none" />
<line
   class="st0"
   x1="412"
   y1="290.74884"
   x2="412"
   y2="373.1232"
   id="line10"
   style="stroke-width:2.16524959;stroke-miterlimit:4;stroke-dasharray:none" />
<line
   class="st0"
   x1="282"
   y1="373.3"
   x2="412"
   y2="373.3"
   id="line12" />
<line
   class="st0"
   x1="412"
   y1="203.3"
   x2="412"
   y2="263.3"
   id="line14" />
<line
   class="st0"
   x1="372"
   y1="203.3"
   x2="412"
   y2="203.3"
   id="line16"
   style="stroke-width:1.99600208;stroke-miterlimit:4;stroke-dasharray:none" />
<line
   class="st0"
   x1="244.40062"
   y1="203.3"
   x2="322.13626"
   y2="203.3"
   id="line18"
   style="stroke-width:1.85502529;stroke-miterlimit:4;stroke-dasharray:none" />
<line
   class="st0"
   x1="282"
   y1="373.3"
   x2="282"
   y2="373.3"
   id="line20"
   style="stroke-width:1.99600208;stroke-miterlimit:4;stroke-dasharray:none" />
<line
   class="st0"
   x1="280"
   y1="373.3"
   x2="280"
   y2="379.3"
   id="line22"
   style="stroke-width:1.99600208;stroke-miterlimit:4;stroke-dasharray:none" />
<line
   class="st0"
   x1="272"
   y1="379.3"
   x2="288"
   y2="379.3"
   id="line24"
   style="stroke-width:1.99600208;stroke-miterlimit:4;stroke-dasharray:none" />
<line
   class="st0"
   x1="275"
   y1="385.3"
   x2="285"
   y2="385.3"
   id="line26"
   style="stroke-width:1.99600208;stroke-miterlimit:4;stroke-dasharray:none" />
<line
   class="st0"
   x1="278"
   y1="391.3"
   x2="282"
   y2="391.3"
   id="line28"
   style="stroke-width:1.99600208;stroke-miterlimit:4;stroke-dasharray:none" />
<line
   class="st0"
   x1="412"
   y1="253.56133"
   x2="412"
   y2="280.04907"
   id="line30"
   style="stroke-width:2.24168205;stroke-miterlimit:4;stroke-dasharray:none" />

<line
   class="st0"
   x1="398"
   y1="281.01752"
   x2="426"
   y2="281.01752"
   id="line34"
   style="stroke-width:1.99600208;stroke-miterlimit:4;stroke-dasharray:none" />
<line
   class="st0"
   x1="398"
   y1="289.01752"
   x2="426"
   y2="289.01752"
   id="line36"
   style="stroke-width:1.99600208;stroke-miterlimit:4;stroke-dasharray:none" />
<line
   class="st0"
   x1="182"
   y1="203.3"
   x2="183"
   y2="203.3"
   id="line38"
   style="stroke-width:1.99600208;stroke-miterlimit:4;stroke-dasharray:none" />

<path
   class="st1"
   d="m 196.46841,203.20453 c 0,-4.4 2.7,-8 6,-8 3.3,0 6,3.6 6,8 m 0,0 c 0,-4.4 2.7,-8 6,-8 3.3,0 6,3.6 6,8 m 0,0 c 0,-4.4 2.7,-8 6,-8 3.3,0 6,3.6 6,8 m 0,0 c 0,-4.4 2.7,-8 6,-8 3.3,0 6,3.6 6,8"
   id="path42"
   style="stroke-width:1.99600208;stroke-miterlimit:4;stroke-dasharray:none" />
<line
   class="st0"
   x1="322"
   y1="203.3"
   x2="327"
   y2="203.3"
   id="line44" />
<line
   class="st0"
   x1="367"
   y1="203.3"
   x2="372"
   y2="203.3"
   id="line46" />
<path
   class="st1"
   d="m 325,203.3 h 2 l 3,-7 6,14 6,-14 6,14 6,-14 6,14 3,-7 h 2"
   id="path48"
   style="stroke-width:1.99600208;stroke-miterlimit:4;stroke-dasharray:none" />
<g
   id="g60">
	<g
   id="g52">
		<path
   class="st2"
   d="M185.4,323.9h-65.5v-64.5c0-10.4,8.4-18.8,18.8-18.8h27.8c10.4,0,18.8,8.4,18.8,18.8V323.9z"
   id="path50" />
	</g>
	<g
   id="g58">
		<ellipse
   class="st3"
   cx="153.3"
   cy="282.3"
   rx="20"
   ry="20"
   id="ellipse54" />
		<path
   class="st4"
   d="M141.3,282.3c3-10,9-10,12,0s9,10,12,0"
   id="path56" />
	</g>
</g>
<circle
   cx="152"
   cy="203.3"
   r="5"
   id="circle62" />
<circle
   cx="412"
   cy="203.3"
   r="5"
   id="circle64" />
<text
   xml:space="preserve"
   style="font-size:16px;line-height:1.25;font-family:sans-serif"
   x="137.90572"
   y="184.67796"
   id="text1834"><tspan
     sodipodi:role="line"
     id="tspan1832"
     x="137.90572"
     y="184.67796">$p_{ao}$</tspan></text><text
   xml:space="preserve"
   style="font-size:8.9413px;line-height:1.25;font-family:sans-serif;stroke-width:0.558831"
   x="739.93353"
   y="105.7447"
   id="text1834-8"
   transform="scale(0.55883101,1.7894497)"><tspan
     sodipodi:role="line"
     id="tspan1832-8"
     x="739.93353"
     y="105.7447"
     style="stroke-width:0.558831">$p_{A}$</tspan></text><text
   xml:space="preserve"
   style="font-size:11.1204px;line-height:1.25;font-family:sans-serif;stroke-width:0.695027"
   x="492.4805"
   y="158.28345"
   id="text6311"
   transform="scale(0.69502707,1.4387929)"><tspan
     sodipodi:role="line"
     id="tspan6309"
     x="492.4805"
     y="158.28345"
     style="stroke-width:0.695027">$\operatorname{R}$</tspan></text><text
   xml:space="preserve"
   style="font-size:16px;line-height:1.25;font-family:sans-serif"
   x="219.0381"
   y="224.13686"
   id="text7617"><tspan
     sodipodi:role="line"
     id="tspan7615"
     x="219.0381"
     y="224.13686">$\operatorname{L}$</tspan></text><text
   xml:space="preserve"
   style="font-size:4.98392px;line-height:1.25;font-family:sans-serif;stroke-width:0.311495"
   x="1213.3083"
   y="90.830154"
   id="text9373"
   transform="scale(0.31149497,3.2103247)"><tspan
     sodipodi:role="line"
     id="tspan9371"
     x="1213.3083"
     y="90.830154"
     style="stroke-width:0.311495">$\operatorname{C}$</tspan></text><text
   xml:space="preserve"
   style="font-size:16px;line-height:1.25;font-family:sans-serif"
   x="191.42859"
   y="281.11554"
   id="text14693"><tspan
     sodipodi:role="line"
     id="tspan14691"
     x="191.42859"
     y="281.11554">ventilatore</tspan><tspan
     sodipodi:role="line"
     x="191.42859"
     y="301.11554"
     id="tspan14695">polmonare</tspan></text></svg>
